<?xml version="1.0" encoding="UTF-8"?>
<svg id="Layer_1" data-name="Layer 1" xmlns="http://www.w3.org/2000/svg" viewBox="0 0 841.89 595.28">
  <defs>
    <style>
      .cls-1 {
        letter-spacing: 0em;
      }

      .cls-2 {
        letter-spacing: 0em;
      }

      .cls-3 {
        fill: #f4e73a;
      }

      .cls-4 {
        letter-spacing: 0em;
      }

      .cls-5 {
        letter-spacing: .03em;
      }

      .cls-6 {
        letter-spacing: .01em;
      }

      .cls-7 {
        fill: #fff;
        font-family: AcuminConcept-CondSemibold, 'Acumin Variable Concept';
        font-size: 87.47px;
        font-variation-settings: 'wght' 600, 'wdth' 67, 'slnt' 0;
      }

      .cls-7, .cls-8 {
        font-weight: 600;
      }

      .cls-9 {
        letter-spacing: 0em;
      }

      .cls-10 {
        letter-spacing: 0em;
      }

      .cls-11 {
        letter-spacing: -.05em;
      }

      .cls-12 {
        letter-spacing: 0em;
      }

      .cls-8 {
        font-family: AcuminConcept-ExtraCondSemibold, 'Acumin Variable Concept';
        font-size: 57.25px;
        font-variation-settings: 'wght' 600, 'wdth' 50, 'slnt' 0;
      }

      .cls-8, .cls-13 {
        fill: #4b9531;
      }

      .cls-14 {
        letter-spacing: 0em;
      }

      .cls-15 {
        letter-spacing: 0em;
      }

      .cls-16 {
        fill: #e5e33a;
        stroke: #4b9531;
        stroke-miterlimit: 10;
        stroke-width: 8.02px;
      }

      .cls-17 {
        letter-spacing: 0em;
      }
    </style>
  </defs>
  <g id="DKB">
    <g>
      <path class="cls-3" d="M483.24,297.65c-3.04-5.7-6.47-11.19-9.67-16.81-2.54-4.46-4.89-8.9-4.78-14.36.19-8.77-.11-17.55-.12-26.33-.01-8.94-.85-17.77-3.19-26.43-.45-2.48-1.66-4.55-3.69-5.99-4.44-3.17-9.2-5.95-13.39-9.41-5.09-4.21-9.97-8.69-15.22-12.71-6.49-4.97-12.85-10.21-21.34-11.5-1.13,0-2.26-.02-3.39-.02-1.37-.06-2.74-.12-4.12-.18-3.79.91-6.93.61-10.1-2.49-3.39-3.31-7.77-5.58-12.67-6.39-.55-.09-1.07-.38-1.6-.58-12.23-1.52-23.89.43-34.97,5.83l-.14-.05s-.07.15-.07.15c0,0-.14.07-.14.07-1.53.47-2.58,1.52-3.45,2.8,1.12,2.94,4.08,3.6,6.36,5.1,0,0,.07.08.07.08.16.17.32.34.49.51,0,0,.07.07.07.07.17.16.33.33.5.49,3.03,3.76,6.26,7.34,9.78,10.63,1.23,1.16,1.64,2.34.16,3.28-1.97,1.24-2.46,3.34-3.53,5.11-3.63,6.01-3.1,11.92.75,17.55,2.71,3.96,5.67,7.75,8.57,11.58,3.06,4.04,3.98,8.56,3.68,13.58-.5,8.39-2.7,16.36-5.19,24.3-.78,2.48-1.66,4.98-2,7.53-1.68,12.62-2.84,25.29-1.59,38.01.45,4.54-.34,9.96,5.27,12.49.14.06.1.54.14.82,15.19.04,30.38.32,45.57-.15,3.82-.12,7.64,0,11.47.02l.23-.15.23.14c6.5.49,12.98-.41,19.49-.2,5.86.19,11.78-.32,17.57.57,5.58.86,10.97-.3,16.44-.61.73-1.23,2.02-2.01,2.54-3.46,1.72-4.81,3.79-9.5,5.25-14.38.81-2.71,1.15-5.88-.25-8.5ZM462.66,213.51c-.28.07-.5.21-.68.44.18-.23.39-.37.68-.44ZM461.87,214.13s-.04.06-.06.1c.02-.04.04-.07.06-.1ZM382.32,170.93s0,0,0,0c0,0,0,0,0,0ZM450.33,289.54c-4.79,5.81-8.86,12.19-13.85,17.79-2.96,3.33-6,7.08-11.33,8.34,1.58-4.7,1.85-9.12,2.28-13.5.44-4.43-.2-8.43-5.01-10.59-4.61-2.07-5.04-6.5-5.27-10.78-.12-2.1,1.7-2.34,3.29-2.38,6.19-.19,12.25.9,18.33,1.8,3.06.45,6.04,1.1,8.98,2.05,3.93,1.27,5.15,4.16,2.57,7.28ZM463.93,268.83c.01.17-.07.35-.26.54-.66,1.55-2.06,1.22-3.25,1.17-6.76-.28-13.38-1.64-20.06-2.53-3.88-.52-7.67-.31-11.52.11-3.19.35-3.65-.42-2.38-3.38,1.36-3.19,2.78-6.36,3.43-9.79.59-3.11-.17-3.86-3.31-3.36-3.62.58-6.27,2.94-8.76,5.34-8.7,8.4-17.7,16.42-28.14,22.62-3.98,2.36-8.13,4.43-12.22,6.6-.56.3-1.22.92-1.85.36-.73-.64.03-1.23.37-1.74,5.36-7.82,11.2-15.22,18.33-21.54,2.95-2.62,5.85-5.32,8.7-8.05,1.73-1.66,1.45-3.12-.75-4.07-1.39-.59-2.87-.96-4.31-1.42-2.71.03-5.42.06-8.13.1-.69.65-1.52.48-2.33.39-.57.06-1.15.13-1.72.19-3.19,1.2-6.59,1.19-9.91,1.6-2.35.29-2.23-1.7-2.26-3.17-.12-4.63-.38-9.25-1.03-13.84-.71-5.01-3.21-9.17-6.85-12.42-5.76-5.14-8.79-11.05-7.05-18.88.65-2.92,1.19-5.86,1.94-8.75.74-2.83,1.3-2.93,3.63-1.29,2.69,1.9,5.05,4.17,7.5,6.33h0c1.66,2.76,3.98,4.98,6.01,7.45,1.81.54,3-.41,4.07-1.68.14-2.56-.76-4.61-2.93-6.05-4-4.37-9.07-7.41-13.71-10.99-4.67-3.61-8.88-7.63-12.48-12.34-1.47-1.92-1.04-2.85,1-3.57,4.02-1.42,8.26-1.7,12.42-2.42,5.2-.9,10.33-.48,15.44.65,0,0,0,0,0,0,.53.52,1.19.58,1.88.52.11.11.23.13.37.08.77-.24,1.5-.39,2.2-.45-.7.06-1.43.21-2.2.45,3.43,1.97,6.24,4.67,8.87,7.57,1.05,1.08,1.3,3.17,3.51,2.78.82.01,1.65.08,2.35-.49.38-.07.75-.13,1.13-.2.35-.75.33-1.72.69-2.51-.36.79-.35,1.76-.69,2.51.58-.15,1.16-.3,1.73-.45-.04-.15-.06-.29-.07-.43,0,.14.03.29.07.43l1.17-.1c.08-.14.17-.21.26-.22-.09.01-.18.09-.26.22,0,0,.28.04.28.04l.27-.08c.59-.11,1.18-.22,1.76-.34-.09-1.3.73-1,1.44-.99-.71-.01-1.53-.31-1.44.99,7.5-1.01,13.65,2.01,19.52,6.26,9.68,7,18.56,14.96,27.77,22.52,1.4,1.15,2.88,2.22,4.38,3.24,1.95,1.33,3.37,3.08,4.47,5.13,0,0,0,0,0,0,1.13,4.94,2.51,9.83,2.61,14.95.29.24.38.49.25.75.12-.26.04-.51-.25-.75.02.34.04.68.06,1.02-.46,3.45.25,6.88.25,10.32h0c-.32.33-.32.65,0,.97-.11,7.87-.23,15.75-.34,23.62.2.16.31.32.33.49ZM372.3,199.93s.04,0,.06,0c-.02,0-.04,0-.06,0ZM373.43,199.89s.01,0,.02,0c0,0-.01,0-.02,0Z"/>
      <path class="cls-3" d="M463.68,269.36c.19-.19.27-.36.26-.54s-.13-.34-.33-.49c.02.34.05.69.07,1.03Z"/>
      <path class="cls-3" d="M418.51,201.22c-4.26-1.16-8.34,1.86-8.87,6.33-.16,1.37.49,1.89,1.69,2.18,2.55.63,5.15.55,7.92.6,2.5-.09,5.22.28,7.83-.65,1.66-.59,2.27-1.63.79-2.95-2.75-2.44-5.77-4.54-9.36-5.52Z"/>
    </g>
    <rect class="cls-13" x="332.98" y="320.69" width="171.57" height="83"/>
    <g>
      <path class="cls-13" d="M164.42,223.13c-3.57-7.83-5.34-16.9-4.41-26.47.96-9.87,5.31-17.92,13.14-23.88,2.18-1.67,5.19-2.26,8.34-3.56-.46-1.46-1.12-3.31-1.63-5.2-1.68-6.26-.25-11.97,2.92-17.48,5.15-8.96,12.39-16.13,20.02-22.8,5.93-5.19,10.65-10.39,12.76-18.54,3.3-12.74,11.73-22.57,22.07-30.48,5.95-4.55,12.63-8.15,18.69-12.58,4.48-3.27,8.65-7.02,12.67-10.87,7.74-7.41,15.64-14.66,26.17-17.68,5.78-1.66,11.88-2.67,17.89-2.96,13.61-.66,27.08,1.09,40.07,5.11,13.68,4.24,27.13,9.24,40.67,13.94.87.3,1.64.85,2.97,1.55-3.68,1.24-6.84,2.31-10,3.38-23.74,7.99-44.9,20.35-62.27,38.46-12.76,13.32-19.66,29.5-21.26,48.1-1.3,15.05,2.01,29.17,6.78,43.14,7.31,21.39,14.71,42.74,22.1,64.1,5.53,15.97,10.93,31.99,16.75,47.85,1.71,4.67.1,7.38-3.2,10.15-6.23,5.22-12.57,10.36-18.4,16-3.15,3.04-5.85,6.82-7.81,10.73-1.72,3.42-2.89,7.48-2.99,11.29-.46,18.51-.48,37.03-.64,55.55-.02,2.12,0,4.24,0,6.61-3.74,0-7.2.14-10.64-.03-9.48-.45-18.96-.94-28.43-1.59-10.71-.74-21.41-1.67-32.11-2.54-8.29-.67-16.6-1.25-24.87-2.1-14.79-1.52-29.78-2.12-44.01-6.97-15.64-5.34-25.22-18.78-25.6-35.19-.14-6.1.36-12.28-.53-18.27-1.09-7.33-3.57-14.44-5.04-21.72-2.57-12.76-2.6-25.39,3.21-37.47.21-.44.32-.98.65-1.29,3.4-3.19,2.52-6.81,1.3-10.61-3.58-11.17-1.3-21.7,4.37-31.51,2.81-4.87,6.62-9.16,10.31-14.16ZM329.35,310.92c3.44-2.83,7.16-6.05,11.06-9.03,1.43-1.09,1.63-2.03,1.07-3.62-3.36-9.67-6.69-19.36-9.95-29.07-9.67-28.85-19.44-57.66-28.86-86.59-2.58-7.94-4.98-16.15-5.78-24.41-1.24-12.68-.38-25.36,3.44-37.79,3.56-11.61,9.07-21.99,17.18-30.92,13.66-15.04,30.25-26.08,48.52-34.73,3.24-1.53,6.55-2.92,10.33-4.6-1.54-.77-2.42-1.39-3.4-1.68-12.47-3.67-24.87-7.57-37.91-8.99-11.22-1.23-22.37-1.81-33.5.53-14.45,3.04-25.29,11.42-32.65,23.81-5.25,8.84-8.31,18.76-10.17,28.98-1.88,10.35-2.64,20.78-.21,31.03,2.34,9.87,5.39,19.61,8.67,29.23,5.56,16.32,10.99,32.71,17.45,48.68,12.11,29.94,24.97,59.58,37.4,89.4,2.66,6.37,4.81,12.96,7.31,19.77ZM308.43,358c0-5.68.04-11.17-.05-16.66,0-.59-.61-1.32-1.14-1.73-18.68-14.58-37.38-29.14-56.09-43.69-9.71-7.55-19.45-15.06-29.16-22.61-8.02-6.24-16.11-12.39-24-18.79-9.24-7.5-18.33-15.19-27.4-22.89-1.42-1.2-2.18-.88-3.41.16-4.05,3.42-6.62,7.83-8.53,12.63-4.9,12.31-4.34,24.86,8.14,34.23,4.25,3.19,8.69,6.12,12.9,9.36,10.07,7.77,21.13,13.92,32.35,19.76,20.29,10.56,40.71,20.86,61.01,31.4,11.83,6.14,23.52,12.52,35.38,18.84ZM186.43,159.12c1.17,3.01,2.23,8.19,4.96,12.25,6.8,10.11,14.29,19.76,21.65,29.48,6.88,9.1,13.8,18.18,20.97,27.04,9.98,12.34,20.07,24.58,30.37,36.65,10.1,11.85,20.51,23.44,30.82,35.11.98,1.11,2.22,2.84,3.78,1.32.66-.64.55-2.7.06-3.77-3.82-8.25-7.64-16.5-11.78-24.58-14-27.35-28.08-54.66-42.23-81.93-6.22-11.98-12.98-23.7-18.93-35.8-4.5-9.14-8.16-18.69-12.06-28.12-.6-1.44-1.08-2.01-2.37-1.04-6.93,5.24-13.66,10.72-18.95,17.7-3.11,4.1-6.21,8.3-6.27,15.69ZM308.62,376.13c0-2-.22-3.47.04-4.85.8-4.21-.78-6.88-4.8-8.21-.36-.12-.7-.34-1.04-.51-25.96-13.15-51.8-26.54-77.91-39.38-23.38-11.49-45.47-24.87-65.46-41.61-1.35-1.13-2.34-1.08-2.99.34-1.85,4-4.3,7.94-5.11,12.17-2.39,12.47.16,24.43,5.46,35.83,1.03,2.22,1.59,5.01,4.54,5.89,2.4.71,4.73,1.67,7.15,2.34,12,3.32,24.01,6.6,36.02,9.86,25.06,6.81,50.13,13.62,75.2,20.41,9.5,2.57,19.01,5.09,28.91,7.74ZM320.32,319.79c2.94-2.83,3.05-5.44,1.57-8.65-2.7-5.89-5.06-11.93-7.48-17.94-8.9-22.06-17.85-44.1-26.62-66.2-6.9-17.38-13.77-34.79-20.28-52.32-4.69-12.62-9.26-25.32-12.98-38.25-5.15-17.9-5.67-36.06-.67-54.22.88-3.21,1.01-6.62,1.51-10.16-.72.16-1.13.17-1.44.34-8.78,4.9-16.4,11.23-22.64,19.08-4.02,5.06-7.4,10.6-8.67,17.12-1.91,9.83.55,19.22,3.98,28.17,3.95,10.3,8.59,20.38,13.54,30.25,11.02,22,22.28,43.88,33.71,65.67,14.74,28.09,29.73,56.05,44.63,84.06.53.99,1.15,1.93,1.84,3.07ZM308.35,332.74c-1.08-4.86-2.46-8.9-5.34-12.28-4.77-5.6-9.67-11.1-14.37-16.76-7.86-9.46-15.5-19.1-23.41-28.5-8.6-10.22-17.56-20.13-26.1-30.4-9.96-11.97-19.75-24.08-29.37-36.33-7.21-9.17-13.98-18.69-21.04-27.98-1.11-1.46-2.52-3.32-4.09-3.68-6.25-1.43-12.94,5.24-14.53,9.18-3.97,9.84-2.95,19.71-.2,29.56,1.21,4.31,2.96,8.44,6.38,11.54,2.73,2.46,5.58,4.79,8.45,7.09,17.62,14.08,35.23,28.17,52.9,42.17,23.43,18.56,48.15,35.51,70.72,56.4ZM159.44,344.07c-1.54,5.25-1.57,13.79-.31,18.91,3.16,12.92,11.83,20.73,24.16,23.76,10.95,2.69,22.26,4.12,33.48,5.4,15.48,1.76,31.03,3,46.57,4.21,14.19,1.1,28.41,1.84,42.6,2.82,2.3.16,2.88-.79,2.8-2.84-.13-3.1-.31-6.21-.12-9.29.17-2.79-.75-4.19-3.55-4.91-13.2-3.41-26.34-7.05-39.52-10.52-34.36-9.06-68.74-18.07-103.11-27.09-.99-.26-2.03-.3-3-.44Z"/>
      <path class="cls-3" d="M329.35,310.92c-2.5-6.81-4.65-13.4-7.31-19.77-12.43-29.82-25.29-59.46-37.4-89.4-6.46-15.97-11.89-32.36-17.45-48.68-3.27-9.61-6.33-19.35-8.67-29.23-2.43-10.24-1.67-20.67.21-31.03,1.86-10.22,4.92-20.14,10.17-28.98,7.36-12.39,18.2-20.77,32.65-23.81,11.13-2.34,22.28-1.76,33.5-.53,13.03,1.43,25.43,5.32,37.91,8.99.98.29,1.86.91,3.4,1.68-3.78,1.68-7.09,3.06-10.33,4.6-18.27,8.65-34.86,19.69-48.52,34.73-8.11,8.93-13.62,19.31-17.18,30.92-3.81,12.43-4.68,25.12-3.44,37.79.8,8.25,3.2,16.47,5.78,24.41,9.41,28.93,19.19,57.74,28.86,86.59,3.26,9.71,6.58,19.4,9.95,29.07.55,1.59.36,2.53-1.07,3.62-3.9,2.98-7.63,6.2-11.06,9.03Z"/>
      <path class="cls-3" d="M308.43,358c-11.85-6.32-23.55-12.7-35.38-18.84-20.3-10.54-40.72-20.84-61.01-31.4-11.23-5.84-22.28-11.99-32.35-19.76-4.2-3.24-8.65-6.18-12.9-9.36-12.49-9.37-13.05-21.93-8.14-34.23,1.91-4.8,4.48-9.21,8.53-12.63,1.23-1.04,2-1.36,3.41-.16,9.07,7.7,18.16,15.39,27.4,22.89,7.89,6.4,15.98,12.56,24,18.79,9.71,7.55,19.45,15.06,29.16,22.61,18.71,14.55,37.41,29.11,56.09,43.69.53.41,1.13,1.14,1.14,1.73.09,5.49.05,10.98.05,16.66Z"/>
      <path class="cls-3" d="M186.43,159.12c.06-7.39,3.16-11.59,6.27-15.69,5.29-6.97,12.02-12.45,18.95-17.7,1.28-.97,1.77-.4,2.37,1.04,3.9,9.43,7.56,18.98,12.06,28.12,5.96,12.11,12.72,23.82,18.93,35.8,14.15,27.27,28.23,54.58,42.23,81.93,4.14,8.09,7.97,16.34,11.78,24.58.5,1.07.6,3.13-.06,3.77-1.56,1.52-2.8-.21-3.78-1.32-10.31-11.67-20.71-23.27-30.82-35.11-10.29-12.07-20.39-24.32-30.37-36.65-7.17-8.87-14.09-17.95-20.97-27.04-7.36-9.72-14.85-19.38-21.65-29.48-2.73-4.06-3.79-9.24-4.96-12.25Z"/>
      <path class="cls-3" d="M308.62,376.13c-9.9-2.65-19.41-5.17-28.91-7.74-25.07-6.79-50.13-13.6-75.2-20.41-12.01-3.27-24.02-6.54-36.02-9.86-2.41-.67-4.75-1.63-7.15-2.34-2.96-.88-3.51-3.66-4.54-5.89-5.29-11.39-7.85-23.35-5.46-35.83.81-4.23,3.26-8.16,5.11-12.17.65-1.42,1.64-1.47,2.99-.34,19.99,16.74,42.08,30.12,65.46,41.61,26.11,12.84,51.95,26.23,77.91,39.38.35.18.68.39,1.04.51,4.02,1.33,5.6,4,4.8,8.21-.26,1.38-.04,2.86-.04,4.85Z"/>
      <path class="cls-3" d="M320.32,319.79c-.69-1.14-1.31-2.08-1.84-3.07-14.89-28.01-29.89-55.97-44.63-84.06-11.43-21.79-22.68-43.67-33.71-65.67-4.95-9.87-9.6-19.94-13.54-30.25-3.43-8.95-5.89-18.33-3.98-28.17,1.27-6.52,4.65-12.05,8.67-17.12,6.24-7.85,13.86-14.19,22.64-19.08.31-.17.72-.18,1.44-.34-.51,3.54-.63,6.96-1.51,10.16-5,18.16-4.49,36.32.67,54.22,3.72,12.93,8.29,25.63,12.98,38.25,6.51,17.53,13.38,34.93,20.28,52.32,8.78,22.11,17.72,44.15,26.62,66.2,2.42,6.01,4.78,12.06,7.48,17.94,1.47,3.21,1.37,5.83-1.57,8.65Z"/>
      <path class="cls-3" d="M308.35,332.74c-22.56-20.9-47.29-37.84-70.72-56.4-17.68-14-35.28-28.1-52.9-42.17-2.87-2.29-5.72-4.62-8.45-7.09-3.42-3.09-5.17-7.22-6.38-11.54-2.76-9.85-3.77-19.72.2-29.56,1.59-3.93,8.28-10.6,14.53-9.18,1.57.36,2.98,2.22,4.09,3.68,7.06,9.29,13.83,18.8,21.04,27.98,9.62,12.25,19.42,24.36,29.37,36.33,8.54,10.27,17.5,20.18,26.1,30.4,7.92,9.4,15.56,19.04,23.41,28.5,4.7,5.66,9.6,11.16,14.37,16.76,2.88,3.38,4.26,7.42,5.34,12.28Z"/>
      <path class="cls-3" d="M159.44,344.07c.97.14,2.01.18,3,.44,34.38,9.01,68.75,18.03,103.11,27.09,13.18,3.47,26.32,7.11,39.52,10.52,2.8.72,3.72,2.12,3.55,4.91-.19,3.08,0,6.2.12,9.29.09,2.05-.5,3-2.8,2.84-14.2-.98-28.42-1.72-42.6-2.82-15.54-1.21-31.08-2.44-46.57-4.21-11.23-1.28-22.54-2.71-33.48-5.4-12.33-3.03-21-10.85-24.16-23.76-1.25-5.12-1.23-13.66.31-18.91Z"/>
    </g>
    <g>
      <path class="cls-13" d="M684.48,237.29c5.67,9.81,7.95,20.34,4.37,31.51-1.22,3.8-2.1,7.42,1.3,10.61.33.31.44.85.65,1.29,5.81,12.08,5.79,24.71,3.21,37.47-1.47,7.29-3.95,14.39-5.04,21.72-.89,5.98-.39,12.17-.53,18.27-.37,16.42-9.96,29.86-25.6,35.19-14.23,4.86-29.21,5.45-44.01,6.97-8.28.85-16.58,1.43-24.87,2.1-10.7.87-21.4,1.8-32.11,2.54-9.47.66-18.95,1.14-28.43,1.59-3.44.17-6.9.03-10.64.03,0-2.37.02-4.49,0-6.61-.17-18.52-.18-37.04-.64-55.55-.09-3.81-1.27-7.87-2.99-11.29-1.97-3.91-4.67-7.68-7.81-10.73-5.83-5.65-12.17-10.78-18.4-16-3.3-2.77-4.92-5.48-3.2-10.15,5.82-15.86,11.22-31.88,16.75-47.85,7.39-21.36,14.79-42.72,22.1-64.1,4.78-13.97,8.08-28.09,6.78-43.14-1.6-18.6-8.5-34.78-21.26-48.1-17.36-18.12-38.53-30.47-62.27-38.46-3.16-1.06-6.32-2.13-10-3.38,1.33-.7,2.11-1.25,2.97-1.55,13.54-4.7,26.99-9.7,40.67-13.94,12.99-4.02,26.46-5.78,40.07-5.11,6.01.29,12.11,1.31,17.89,2.96,10.53,3.02,18.43,10.28,26.17,17.68,4.02,3.84,8.19,7.59,12.67,10.87,6.06,4.43,12.74,8.02,18.69,12.58,10.34,7.91,18.77,17.75,22.07,30.48,2.11,8.14,6.83,13.35,12.76,18.54,7.63,6.68,14.87,13.85,20.02,22.8,3.17,5.51,4.6,11.22,2.92,17.48-.51,1.89-1.17,3.74-1.63,5.2,3.15,1.3,6.15,1.9,8.34,3.56,7.83,5.97,12.18,14.01,13.14,23.88.93,9.57-.84,18.64-4.41,26.47,3.69,5,7.5,9.3,10.31,14.16ZM516.55,291.14c12.43-29.82,25.29-59.46,37.4-89.4,6.46-15.97,11.89-32.36,17.45-48.68,3.27-9.61,6.33-19.35,8.67-29.23,2.43-10.24,1.67-20.67-.21-31.03-1.86-10.22-4.92-20.14-10.17-28.98-7.36-12.39-18.2-20.77-32.65-23.81-11.13-2.34-22.28-1.76-33.5-.53-13.03,1.43-25.43,5.32-37.91,8.99-.98.29-1.86.91-3.4,1.68,3.78,1.68,7.09,3.06,10.33,4.6,18.27,8.65,34.86,19.69,48.52,34.73,8.11,8.93,13.62,19.31,17.18,30.92,3.81,12.43,4.68,25.12,3.44,37.79-.8,8.25-3.2,16.47-5.78,24.41-9.41,28.93-19.19,57.74-28.86,86.59-3.26,9.71-6.58,19.4-9.95,29.07-.55,1.59-.36,2.53,1.07,3.62,3.9,2.98,7.63,6.2,11.06,9.03,2.5-6.81,4.65-13.4,7.31-19.77ZM565.53,339.16c20.3-10.54,40.72-20.84,61.01-31.4,11.23-5.84,22.28-11.99,32.35-19.76,4.2-3.24,8.65-6.18,12.9-9.36,12.49-9.37,13.05-21.93,8.14-34.23-1.91-4.8-4.48-9.21-8.53-12.63-1.23-1.04-2-1.36-3.41-.16-9.07,7.7-18.16,15.39-27.4,22.89-7.89,6.4-15.98,12.56-24,18.79-9.71,7.55-19.45,15.06-29.16,22.61-18.71,14.55-37.41,29.11-56.09,43.69-.53.41-1.13,1.14-1.14,1.73-.09,5.49-.05,10.98-.05,16.66,11.85-6.32,23.55-12.7,35.38-18.84ZM645.89,143.43c-5.29-6.97-12.02-12.45-18.95-17.7-1.28-.97-1.77-.4-2.37,1.04-3.9,9.43-7.56,18.98-12.06,28.12-5.96,12.11-12.72,23.82-18.93,35.8-14.15,27.27-28.23,54.58-42.23,81.93-4.14,8.09-7.97,16.34-11.78,24.58-.5,1.07-.6,3.13.06,3.77,1.56,1.52,2.8-.21,3.78-1.32,10.31-11.67,20.71-23.27,30.82-35.11,10.29-12.07,20.39-24.32,30.37-36.65,7.17-8.87,14.09-17.95,20.97-27.04,7.36-9.72,14.85-19.38,21.65-29.48,2.73-4.06,3.79-9.24,4.96-12.25-.06-7.39-3.16-11.59-6.27-15.69ZM558.88,368.39c25.07-6.79,50.13-13.6,75.2-20.41,12.01-3.27,24.02-6.54,36.02-9.86,2.41-.67,4.75-1.63,7.15-2.34,2.96-.88,3.51-3.66,4.54-5.89,5.29-11.39,7.85-23.35,5.46-35.83-.81-4.23-3.26-8.16-5.11-12.17-.65-1.42-1.64-1.47-2.99-.34-19.99,16.74-42.08,30.12-65.46,41.61-26.11,12.84-51.95,26.23-77.91,39.38-.35.18-.68.39-1.04.51-4.02,1.33-5.6,4-4.8,8.21.26,1.38.04,2.86.04,4.85,9.9-2.65,19.41-5.17,28.91-7.74ZM520.1,316.73c14.89-28.01,29.89-55.97,44.63-84.06,11.43-21.79,22.68-43.67,33.71-65.67,4.95-9.87,9.6-19.94,13.54-30.25,3.43-8.95,5.89-18.33,3.98-28.17-1.27-6.52-4.65-12.05-8.67-17.12-6.24-7.85-13.86-14.19-22.64-19.08-.31-.17-.72-.18-1.44-.34.51,3.54.63,6.96,1.51,10.16,5,18.16,4.49,36.32-.67,54.22-3.72,12.93-8.29,25.63-12.98,38.25-6.51,17.53-13.38,34.93-20.28,52.32-8.78,22.11-17.72,44.15-26.62,66.2-2.42,6.01-4.78,12.06-7.48,17.94-1.47,3.21-1.37,5.83,1.57,8.65.69-1.14,1.31-2.08,1.84-3.07ZM600.95,276.34c17.68-14,35.28-28.1,52.9-42.17,2.87-2.29,5.72-4.62,8.45-7.09,3.42-3.09,5.17-7.22,6.38-11.54,2.76-9.85,3.77-19.72-.2-29.56-1.59-3.93-8.28-10.6-14.53-9.18-1.57.36-2.98,2.22-4.09,3.68-7.06,9.29-13.83,18.8-21.04,27.98-9.62,12.25-19.42,24.36-29.37,36.33-8.54,10.27-17.5,20.18-26.1,30.4-7.92,9.4-15.56,19.04-23.41,28.5-4.7,5.66-9.6,11.16-14.37,16.76-2.88,3.38-4.26,7.42-5.34,12.28,22.56-20.9,47.29-37.84,70.72-56.4ZM676.14,344.51c-34.38,9.01-68.75,18.03-103.11,27.09-13.18,3.47-26.32,7.11-39.52,10.52-2.8.72-3.72,2.12-3.55,4.91.19,3.08,0,6.2-.12,9.29-.09,2.05.5,3,2.8,2.84,14.2-.98,28.42-1.72,42.6-2.82,15.54-1.21,31.08-2.44,46.57-4.21,11.23-1.28,22.54-2.71,33.48-5.4,12.33-3.03,21-10.85,24.16-23.76,1.25-5.12,1.23-13.66-.31-18.91-.97.14-2.01.18-3,.44Z"/>
      <path class="cls-3" d="M509.24,310.92c2.5-6.81,4.65-13.4,7.31-19.77,12.43-29.82,25.29-59.46,37.4-89.4,6.46-15.97,11.89-32.36,17.45-48.68,3.27-9.61,6.33-19.35,8.67-29.23,2.43-10.24,1.67-20.67-.21-31.03-1.86-10.22-4.92-20.14-10.17-28.98-7.36-12.39-18.2-20.77-32.65-23.81-11.13-2.34-22.28-1.76-33.5-.53-13.03,1.43-25.43,5.32-37.91,8.99-.98.29-1.86.91-3.4,1.68,3.78,1.68,7.09,3.06,10.33,4.6,18.27,8.65,34.86,19.69,48.52,34.73,8.11,8.93,13.62,19.31,17.18,30.92,3.81,12.43,4.68,25.12,3.44,37.79-.8,8.25-3.2,16.47-5.78,24.41-9.41,28.93-19.19,57.74-28.86,86.59-3.26,9.71-6.58,19.4-9.95,29.07-.55,1.59-.36,2.53,1.07,3.62,3.9,2.98,7.63,6.2,11.06,9.03Z"/>
      <path class="cls-3" d="M530.15,358c11.85-6.32,23.55-12.7,35.38-18.84,20.3-10.54,40.72-20.84,61.01-31.4,11.23-5.84,22.28-11.99,32.35-19.76,4.2-3.24,8.65-6.18,12.9-9.36,12.49-9.37,13.05-21.93,8.14-34.23-1.91-4.8-4.48-9.21-8.53-12.63-1.23-1.04-2-1.36-3.41-.16-9.07,7.7-18.16,15.39-27.4,22.89-7.89,6.4-15.98,12.56-24,18.79-9.71,7.55-19.45,15.06-29.16,22.61-18.71,14.55-37.41,29.11-56.09,43.69-.53.41-1.13,1.14-1.14,1.73-.09,5.49-.05,10.98-.05,16.66Z"/>
      <path class="cls-3" d="M652.16,159.12c-.06-7.39-3.16-11.59-6.27-15.69-5.29-6.97-12.02-12.45-18.95-17.7-1.28-.97-1.77-.4-2.37,1.04-3.9,9.43-7.56,18.98-12.06,28.12-5.96,12.11-12.72,23.82-18.93,35.8-14.15,27.27-28.23,54.58-42.23,81.93-4.14,8.09-7.97,16.34-11.78,24.58-.5,1.07-.6,3.13.06,3.77,1.56,1.52,2.8-.21,3.78-1.32,10.31-11.67,20.71-23.27,30.82-35.11,10.29-12.07,20.39-24.32,30.37-36.65,7.17-8.87,14.09-17.95,20.97-27.04,7.36-9.72,14.85-19.38,21.65-29.48,2.73-4.06,3.79-9.24,4.96-12.25Z"/>
      <path class="cls-3" d="M529.97,376.13c9.9-2.65,19.41-5.17,28.91-7.74,25.07-6.79,50.13-13.6,75.2-20.41,12.01-3.27,24.02-6.54,36.02-9.86,2.41-.67,4.75-1.63,7.15-2.34,2.96-.88,3.51-3.66,4.54-5.89,5.29-11.39,7.85-23.35,5.46-35.83-.81-4.23-3.26-8.16-5.11-12.17-.65-1.42-1.64-1.47-2.99-.34-19.99,16.74-42.08,30.12-65.46,41.61-26.11,12.84-51.95,26.23-77.91,39.38-.35.18-.68.39-1.04.51-4.02,1.33-5.6,4-4.8,8.21.26,1.38.04,2.86.04,4.85Z"/>
      <path class="cls-3" d="M518.27,319.79c.69-1.14,1.31-2.08,1.84-3.07,14.89-28.01,29.89-55.97,44.63-84.06,11.43-21.79,22.68-43.67,33.71-65.67,4.95-9.87,9.6-19.94,13.54-30.25,3.43-8.95,5.89-18.33,3.98-28.17-1.27-6.52-4.65-12.05-8.67-17.12-6.24-7.85-13.86-14.19-22.64-19.08-.31-.17-.72-.18-1.44-.34.51,3.54.63,6.96,1.51,10.16,5,18.16,4.49,36.32-.67,54.22-3.72,12.93-8.29,25.63-12.98,38.25-6.51,17.53-13.38,34.93-20.28,52.32-8.78,22.11-17.72,44.15-26.62,66.2-2.42,6.01-4.78,12.06-7.48,17.94-1.47,3.21-1.37,5.83,1.57,8.65Z"/>
      <path class="cls-3" d="M530.23,332.74c22.56-20.9,47.29-37.84,70.72-56.4,17.68-14,35.28-28.1,52.9-42.17,2.87-2.29,5.72-4.62,8.45-7.09,3.42-3.09,5.17-7.22,6.38-11.54,2.76-9.85,3.77-19.72-.2-29.56-1.59-3.93-8.28-10.6-14.53-9.18-1.57.36-2.98,2.22-4.09,3.68-7.06,9.29-13.83,18.8-21.04,27.98-9.62,12.25-19.42,24.36-29.37,36.33-8.54,10.27-17.5,20.18-26.1,30.4-7.92,9.4-15.56,19.04-23.41,28.5-4.7,5.66-9.6,11.16-14.37,16.76-2.88,3.38-4.26,7.42-5.34,12.28Z"/>
      <path class="cls-3" d="M679.14,344.07c-.97.14-2.01.18-3,.44-34.38,9.01-68.75,18.03-103.11,27.09-13.18,3.47-26.32,7.11-39.52,10.52-2.8.72-3.72,2.12-3.55,4.91.19,3.08,0,6.2-.12,9.29-.09,2.05.5,3,2.8,2.84,14.2-.98,28.42-1.72,42.6-2.82,15.54-1.21,31.08-2.44,46.57-4.21,11.23-1.28,22.54-2.71,33.48-5.4,12.33-3.03,21-10.85,24.16-23.76,1.25-5.12,1.23-13.66-.31-18.91Z"/>
    </g>
    <text class="cls-7" transform="translate(340.1 391.57) scale(1.23 1)"><tspan x="0" y="0">D</tspan><tspan class="cls-15" x="44" y="0">K</tspan><tspan x="85.45" y="0">B</tspan></text>
    <rect class="cls-16" x="151.97" y="420.63" width="536.65" height="54.12"/>
    <text class="cls-8" transform="translate(146.23 551.35) scale(1.23 1)"><tspan class="cls-6" x="0" y="0">P</tspan><tspan class="cls-11" x="21.18" y="0">T</tspan><tspan class="cls-2" x="35.72" y="0">.</tspan><tspan x="44.37" y="0"> </tspan><tspan class="cls-4" x="51.98" y="0">D</tspan><tspan x="74.02" y="0">H</tspan><tspan class="cls-10" x="96.7" y="0">A</tspan><tspan x="117.42" y="0">R</tspan><tspan class="cls-14" x="138.2" y="0">M</tspan><tspan x="167.34" y="0">A </tspan><tspan class="cls-4" x="195.91" y="0">K</tspan><tspan class="cls-10" x="216.52" y="0">A</tspan><tspan class="cls-1" x="237.25" y="0">R</tspan><tspan class="cls-4" x="258.6" y="0">T</tspan><tspan x="276.01" y="0">I</tspan><tspan class="cls-12" x="286.54" y="0">K</tspan><tspan class="cls-9" x="307.15" y="0">A </tspan><tspan class="cls-17" x="335.72" y="0">B</tspan><tspan x="356.56" y="0">H</tspan><tspan class="cls-10" x="379.23" y="0">A</tspan><tspan class="cls-5" x="399.95" y="0">K</tspan><tspan class="cls-12" x="422.22" y="0">T</tspan><tspan x="439.63" y="0">I</tspan></text>
  </g>
</svg>