<?xml version="1.0" encoding="UTF-8"?>
<svg id="Layer_1" data-name="Layer 1" xmlns="http://www.w3.org/2000/svg" xmlns:xlink="http://www.w3.org/1999/xlink" viewBox="0 0 841.89 595.28">
  <defs>
    <style>
      .cls-1 {
        fill: none;
        stroke: #785e47;
        stroke-miterlimit: 10;
        stroke-width: 4px;
      }

      .cls-2 {
        fill: url(#linear-gradient-2);
      }

      .cls-3 {
        fill: #e6b33c;
      }

      .cls-4 {
        fill: url(#linear-gradient-4);
      }

      .cls-5 {
        fill: url(#linear-gradient-3);
      }

      .cls-6 {
        fill: url(#linear-gradient-5);
      }

      .cls-7 {
        fill: url(#linear-gradient-6);
      }

      .cls-8 {
        fill: url(#linear-gradient);
      }
    </style>
    <linearGradient id="linear-gradient" x1="355.37" y1="370.53" x2="355.37" y2="443.74" gradientUnits="userSpaceOnUse">
      <stop offset="0" stop-color="#3a69a6"/>
      <stop offset=".13" stop-color="#3e67a3"/>
      <stop offset=".28" stop-color="#4b629b"/>
      <stop offset=".43" stop-color="#615a8e"/>
      <stop offset=".59" stop-color="#804f7b"/>
      <stop offset=".69" stop-color="#99476d"/>
      <stop offset="1" stop-color="#970000"/>
    </linearGradient>
    <linearGradient id="linear-gradient-2" x1="466.43" y1="349.66" x2="466.43" y2="389.7" gradientUnits="userSpaceOnUse">
      <stop offset="0" stop-color="#3a69a6"/>
      <stop offset=".34" stop-color="#3e67a3"/>
      <stop offset=".71" stop-color="#4b629b"/>
      <stop offset="1" stop-color="#5b5d92"/>
    </linearGradient>
    <linearGradient id="linear-gradient-3" x1="420.79" y1="325.21" x2="420.79" y2="535.24" xlink:href="#linear-gradient"/>
    <linearGradient id="linear-gradient-4" x1="356.29" y1="443.07" x2="356.29" xlink:href="#linear-gradient"/>
    <linearGradient id="linear-gradient-5" x1="354.02" x2="354.02" y2="370.68" xlink:href="#linear-gradient"/>
    <linearGradient id="linear-gradient-6" x1="478.32" y1="330.21" x2="478.32" y2="465.09" gradientUnits="userSpaceOnUse">
      <stop offset="0" stop-color="#3a69a6"/>
      <stop offset=".15" stop-color="#3e67a3"/>
      <stop offset=".32" stop-color="#4b629b"/>
      <stop offset=".5" stop-color="#615a8e"/>
      <stop offset=".68" stop-color="#804f7b"/>
      <stop offset=".8" stop-color="#99476d"/>
      <stop offset="1" stop-color="#970000"/>
    </linearGradient>
  </defs>
  <g id="PLA">
    <polygon class="cls-1" points="420.94 30.99 113.05 564.28 728.84 564.28 420.94 30.99"/>
    <g>
      <path class="cls-8" d="M353.97,370.58v.1c0-.05.05-.1.1-.15-.05,0-.05.05-.1.05ZM353.97,370.58v.1c0-.05.05-.1.1-.15-.05,0-.05.05-.1.05ZM355.81,443.07c.2.15.41.31.66.51.1.05.2.15.31.15-.36-.2-.66-.46-.97-.66Z"/>
      <path class="cls-2" d="M453.67,389.7c-1.91-8.96-5.9-16.58-13.16-21.45-.12-.12-.31-.18-.43-.31,2.64-6.09,6.21-10.54,10.76-13.29,4.49-2.74,10.95-4.39,19.31-5,11.56,9.33,19.13,21.09,22.64,35.29"/>
      <path class="cls-5" d="M394.33,498.86v-13.54c.66.05,1.38.1,2.04.15,2.09.15,4.29.2,6.54.2,25.29,0,46.8-6.9,64.63-20.59h.1c.26-.2.46-.36.72-.56,7-5.52,12.67-11.75,16.91-18.95,6.74-11.24,10.12-24.73,10.12-40.21,0-1.07,0-2.09-.05-3.07-6.74,1.28-14.56,2.4-23.4,3.47-7.05.87-12.82,1.74-17.11,2.76-.2,15.28-3.78,24.73-11.96,33.62-.66.72-1.33,1.43-2.09,2.15-5.88,5.82-12.31,8.99-20.08,10.47-5.42,1.23-11.55,1.58-18.6,1.58-1.89,0-3.83-.1-5.72-.2v-97.53c1.43-.15,2.91-.15,4.44-.15,5.62,0,10.42.15,14.82.66-1.63,3.22-2.86,6.85-3.88,10.88l25.6,2.91c.61-1.99,1.33-3.88,2.04-5.57,2.71-6.23,6.34-10.83,10.98-13.64,4.55-2.81,11.14-4.5,19.62-5.11-.41-.36-.87-.77-1.38-1.12-6.8-5.26-14.15-9.5-22.02-12.77-12.93-5.31-26.98-6.95-43.12-8.53-3.83-.36-7.71-.31-11.44,0h-38.06v11.9c-7.77,4.09-14.31,8.84-19.41,14.41v-27.28h-42.35v210.03h42.35v-71.78c5.88,4.39,12.77,8.02,19.41,11.04v59.72h195.42v-35.35h-155.06ZM356.78,443.74c-.1,0-.2-.1-.31-.15-.26-.2-.46-.36-.66-.51.31.2.61.46.97.66ZM353.97,370.58c.05,0,.05-.05.1-.05-.05.05-.1.1-.1.15v-.1ZM338.13,404.86c0-14.46,5.26-25.54,15.84-33.31v70.15c-10.58-8.38-15.84-20.69-15.84-36.84Z"/>
      <path class="cls-4" d="M356.78,443.74c-.1,0-.2-.1-.31-.15-.26-.2-.46-.36-.66-.51.31.2.61.46.97.66Z"/>
      <path class="cls-6" d="M354.07,370.53c-.05.05-.1.1-.1.15v-.1c.05,0,.05-.05.1-.05Z"/>
      <path class="cls-7" d="M493.02,384.83c8.95-1.38,16.14-2.88,21.65-4.44.06-3,.13-4.94.13-5.76,0-8.95-2.44-15.2-7.38-18.89-6.69-4.94-16.64-7.38-29.84-7.38-2.69,0-5.31.08-7.68.27-.44-.38-.82-.83-1.41-1.03-10.58-3.6-16.32-7.87-21.95-12.85,10.01-3,21.73-4.53,34.87-4.53s23.9,1.25,32.09,3.88c8.26,2.56,14.33,5.88,18.21,9.82,3.82,3.94,6.57,8.88,8.13,14.89.88,3.75,1.25,10.45,1.25,20.21v29.22c0,20.4.56,33.28,1.69,38.66,1.13,5.44,3.32,10.57,6.63,15.52h-27.34c-2.69-4.5-4.44-9.82-5.19-15.95-9.7,6.94-19.02,11.82-27.97,14.64-6.76,2.13-13.83,3.44-21.27,4,.25-.19.5-.38.75-.56,7.01-5.51,12.64-11.76,16.89-18.96,2.75-.75,5.38-1.75,7.88-2.94,7.82-3.69,13.64-8.76,17.27-15.14,2.82-4.94,4.25-12.26,4.25-21.96v-8.01c-5.07,1.75-11.51,3.32-19.33,4.75-6.76,1.31-14.58,2.44-23.4,3.5-7.07.88-12.83,1.75-17.14,2.75-2.25.56-4.19,1.06-5.69,1.63-4.44,1.63-7.88,4-10.32,7.13-2.44,3.13-3.63,6.63-3.63,10.45,0,5.69,2.56,10.51,7.7,14.39-.63.75-1.31,1.44-2.06,2.19-5.88,5.82-12.32,8.95-20.08,10.45-8.95-6.88-13.45-15.7-13.45-26.46,0-6.32,1.75-12.07,5.19-17.33,3.44-5.26,7.95-9.45,13.51-12.58,5.57-3.19,11.82-5.57,18.77-7.19,2.31-.5,5.13-1,8.51-1.5"/>
      <path class="cls-3" d="M329.73,236.86l60.8,75.81c1.05,1.31,2.64,2.08,4.33,2.08h3.11l-37.49-75.6c-2.86-5.76-7.54-10.58-13.53-12.94-5.19-2.05-11.5-2.36-17.05,3.49-1.86,1.96-1.85,5.06-.16,7.16Z"/>
      <path class="cls-3" d="M446.05,301.1l70.38-67.02c1.22-1.16,2.9-1.7,4.56-1.48l3.08.42-47.25,69.92c-3.6,5.33-8.89,9.48-15.14,11.02-5.42,1.34-11.71.8-16.43-5.74-1.58-2.19-1.16-5.26.8-7.12Z"/>
      <path class="cls-3" d="M427.52,295.54l-12.51-7.55c-1.27-.77-2.05-2.14-2.05-3.63v-88.9c0-3.02,3.07-5.07,5.86-3.92l12.51,5.16c1.59.65,2.62,2.2,2.62,3.92v91.28c0,3.3-3.6,5.33-6.43,3.63Z"/>
    </g>
  </g>
</svg>