<svg xmlns="http://www.w3.org/2000/svg" viewBox="0 0 416.53 435.25"><defs><style>.cls-1{fill:#81524b;}</style></defs><g id="Layer_2" data-name="Layer 2"><g id="Layer_1-2" data-name="Layer 1"><path class="cls-1" d="M336.76,204.53c4.37,0,7.91.12,11.44,0,2.3-.11,3.08.65,3,2.93-.13,5.34-.11,10.69,0,16,.05,2.08-.79,2.61-2.74,2.59-6.68-.08-13.37,0-20.05-.07-2.44,0-3.45.59-3.45,3.18q.08,76.22,0,152.43c0,2.35.95,2.91,3.11,2.88,7.16-.08,14.33,0,22,0,0,4,.05,7.9,0,11.76-.12,6.44.9,5.78-5.95,5.72-4.53,0-9.05-.52-13.57-.51-5,0-10,.5-15,.49-6.14,0-12.27-.5-18.41-.49Q184,401.64,70.85,402H67.06V384.63c.77-.05,1.67-.15,2.57-.15,6.2,0,12.4,0,18.6,0,3.81,0,3.82,0,3.82-3.89l0-53.57q0-48.56,0-97.12c0-3.86,0-3.86-3.83-3.86H63.73V215.13c0-2.86.05-5.73,0-8.59,0-1.47.51-2.06,2-2,2.71.07,5.42,0,8.13,0,1.65,0,2.62-.84,1.26-2.31-4.86-5.23-6.52-12-9.16-18.28-2.18-5.18-3.36-10.49-2.21-16.06,1.22-5.9,3.71-11.16,9.68-13.66,5.24-2.2,11.54.57,14.38,5.95,4.07,7.68,4.12,15.3-.74,22.7a17.08,17.08,0,0,0-3.29,9.55c0,3.16,1.85,5,4.53,6,2.38.86,5.05,1.21,6.89-1.14,5.31-6.77,10.53-13.61,15.73-20.47a7.57,7.57,0,0,0,.69-2.44c-2.54-.58-4.8-.93-7-1.61-6.39-2-10-6.94-12.58-12.64a151.32,151.32,0,0,1-6.61-17.25,22.46,22.46,0,0,1,2.58-19A11.94,11.94,0,0,1,99.27,118a11.08,11.08,0,0,1,10,6.67c4,8.1,3.85,15.81-1.3,23.48a22,22,0,0,0-3,7.89c-.77,3.85,3.46,7.89,8.14,8.32,3.4.31,6.41-.55,8.61-3.14,3.78-4.45,7.44-9,11.06-13.59a14.43,14.43,0,0,0,1.44-3.11,8.08,8.08,0,0,0-1.81-.78c-8.94-1.16-13.77-7-16.9-14.6-2.08-5.09-4.26-10.18-5.85-15.43-2-6.55-2-13.13,1.91-19.23,2.77-4.37,6.44-7.17,12-6.35s9,4.26,10.75,9.25c2.63,7.3,1.29,14.11-2.67,20.72a18.75,18.75,0,0,0-2.4,7.7c-.38,4,1.56,6.41,5.54,8,3.33,1.36,6.78.88,9.2-2.07,4.06-4.95,7.75-10.19,11.55-15.35a8.72,8.72,0,0,0,.81-2.27c-1.24-.34-2.21-.66-3.21-.88-7.47-1.63-11.53-6.87-14.23-13.38a160.24,160.24,0,0,1-5.95-15.71c-2.36-7.93-2.16-15.7,4-22.15a12.33,12.33,0,0,1,19.55,2.35c4.34,7.4,3.16,14.71-.79,21.94a42.69,42.69,0,0,0-3.51,8c-1.08,3.59,1.1,7.26,4.87,9,3.58,1.69,6.25.69,9.27-2,5.93-5.32,8.11-11.65,7.33-19.43-.47-4.73-.13-9.54-.06-14.32,0-2.38-.44-3.67-3.37-2.87a3.94,3.94,0,0,1-3.5-1.15c-.87-1.49-1.68-3.67-1.19-5.13.86-2.54,2.62-4.83,4.18-7.11q16.89-24.78,33.88-49.5c1.75-2.57,2.47-2.54,4.27.15,10.86,16.18,21.68,32.39,32.62,48.52,2.35,3.46,3.66,7,3.23,11.18-.19,1.85-.65,2.81-2.55,3s-2.9,1.21-2.85,3.41c.15,7,0,14.06.1,21.08a4.64,4.64,0,0,0,.9,2.64q4,5.1,8.14,10c1.75,2,3.77,3.56,6.8,2.39,3.45-1.34,5.51-3.65,5.94-7.35s-1.36-6.43-3.12-9.28c-4.66-7.57-4.91-15.24-.47-23s12.87-7.58,18.56-2.45,6.46,11.82,4.85,18.5a164.74,164.74,0,0,1-7.2,21.23,19.33,19.33,0,0,1-13.18,11.85c-2.68.8-1.49,2.86-.57,4.18,3.16,4.55,6.5,9,9.84,13.4a8.52,8.52,0,0,0,2.17,1.87c3,2,5.81,1.87,8.84-.28,3.46-2.46,4.89-5.38,3.53-8.77s-3.56-6.48-5-9.85c-3.37-7.75-2.37-15,3-21.63,4.64-5.65,12.74-5.52,17.95.07,4.85,5.21,4.91,11.5,3.93,17.78-1.3,8.31-4.52,16.06-8.53,23.46-2.61,4.8-6.38,8.26-11.93,9.62-3,.74-3.3,1.72-1.49,4.21,3.09,4.27,6.3,8.45,9.39,12.71,4.57,6.32,14.52,4.74,16.6-1.86a9.18,9.18,0,0,0-1.54-8.62c-3.4-4.7-5.9-9.79-4.87-15.67a38.4,38.4,0,0,1,3.53-10.71c4.41-8.55,16.59-5.79,20.45.56,4.14,6.82,4.3,13.82,1.78,21.09-1.43,4.12-3,8.18-4.5,12.28-3.07,8.46-8.09,15-17.65,16.67-2.52.45-2.26,1.75-1.24,3.17,4.45,6.22,8.89,12.45,13.56,18.51,2.81,3.65,5.36,4.31,8.1,2.78,3.7-2.06,5.43-6.15,3.85-10a35.07,35.07,0,0,0-3.7-6.41c-6-8.74-3.33-18.36,2.16-24.83,4.66-5.5,13.06-4.86,17.91,1.06,4.39,5.37,5.1,11.63,3.73,18.11a69.65,69.65,0,0,1-12.21,27.78M209,226c-28.48,0-57-.08-85.43,0-9.06,0-8-1.87-8,7.87-.22,22.33,0,44.67,0,67q0,25.62,0,51.25c0,7.93-.13,15.85-.16,23.77,0,2.09.08,3.93,3.17,3.93,13.17,0,26.33.25,39.49.28q39.52.09,79,0c19.56,0,39.12,0,58.68-.2,5.84-.06,5.83-.33,5.83-6V231.92a8.8,8.8,0,0,1,.06-2.57c.95-2.95-.53-3.36-3.07-3.36q-44.75.09-89.49,0M207,208v0q50.12,0,100.22,0a15.64,15.64,0,0,0,3.23-.68,15.9,15.9,0,0,0-1.45-3.22c-2.79-3.76-5.55-7.56-8.64-11.08-1.2-1.36-3.21-2.82-4.9-2.87-9-.27-18-.1-27-.1q-74.94,0-149.88,0a4.79,4.79,0,0,0-3.29,1.19c-3.57,4.24-7,8.62-10.32,13a10.85,10.85,0,0,0-1.12,3.05,16.94,16.94,0,0,0,3.24.66q50,0,99.92,0m79.64-32.67a13.88,13.88,0,0,0-1.22-3.21q-5.56-7.32-11.34-14.49a3.73,3.73,0,0,0-2.38-1.36c-3.72-.14-7.45,0-11.17,0-10.52,0-21-.07-31.54,0-10.3.09-20.59.43-30.88.44-8.11,0-16.23-.36-24.34-.43q-15.34-.14-30.67,0a5.3,5.3,0,0,0-3.63,1.68c-3.69,4.53-7.17,9.23-10.65,13.92a11.57,11.57,0,0,0-1.07,2.74,13.67,13.67,0,0,0,3,.65q76.14.06,152.28,0h3.65M175.29,110a6.48,6.48,0,0,0,1.17.52q29.88.24,59.78.47c2,0,2.47-1.1,1.28-2.55-2.24-2.73-4.54-5.44-7-7.94a6.66,6.66,0,0,1-2.3-5.23c.12-10,.13-20,0-30a11.41,11.41,0,0,0-1.62-5.6c-6-9.51-12.22-18.91-18.39-28.33-.59-.9-1.35-1.69-2.41-3-5.46,8.16-10.55,15.86-15.74,23.5-3.37,5-7.05,9.6-6.39,16.29.55,5.63.09,11.36.09,17,0,4.3.14,8.59-.05,12.87,0,1.09-1,2.2-1.72,3.17-2.11,2.91-4.3,5.75-6.63,8.85m-22.1,30.35.53.89c1.48.09,3,.26,4.45.26q44.12,0,88.25,0c3.87,0,7.74,0,11.61,0,2.49,0,3.18-1,1.78-2.88-3-4-6.17-8-9.52-11.8a5.85,5.85,0,0,0-4-1.5c-11.3,0-22.61.33-33.92.33-14.41,0-28.82-.24-43.23-.37-3.43,0-6.5.52-8,4.2a11.48,11.48,0,0,1-1.67,2.31l-6.33,8.55M84.44,169.92c-.34-3.87-2.82-7.3-6.06-8a7.08,7.08,0,0,0-7.76,4.57,16.07,16.07,0,0,0-.75,5.28,7.89,7.89,0,0,0,5.66,7.62c3.1.76,5.31-.34,7.28-4.11a29.62,29.62,0,0,0,1.63-5.35m30.73-64.46c-.5,5.09,2.93,7.34,6.24,8.39,2.18.69,5.52-1.38,6.85-4.64a13.18,13.18,0,0,0,.93-6.63,6.88,6.88,0,0,0-10.73-4.85c-2.87,1.78-3.36,4.67-3.29,7.73m-9.59,29.74a10.83,10.83,0,0,0,0-1.71,9,9,0,0,0-5.5-6.84c-2.44-1.09-4.53.14-6.27,1.75-3,2.8-3.6,9.93-.84,12.9a8.19,8.19,0,0,0,4.64,2.4c4.19.47,8-3.75,8-8.5m32.51-60c.34,4.4,1.68,6.73,4.81,7.9,2.88,1.08,5.9.52,7.44-1.38,2.48-3,2.95-8.17,1-11.29-3.38-5.52-8.61-5.61-11.92-.08-.83,1.4-.94,3.22-1.38,4.85m136.57.74c-.72-2-1.14-4.2-2.23-6-2.39-4-6.77-4.26-10-1-3,3.16-3.71,8.73-.91,12.06a9.34,9.34,0,0,0,5.48,3c3.89.46,7.11-3.47,7.64-8.13m68.08,95.35c0-.66.05-1.34,0-2-.23-2.64-2.91-6.13-5.14-6.74a6.81,6.81,0,0,0-7.36,2.77,12.15,12.15,0,0,0-1.52,5.35c-.24,4.48,2,8.31,6.42,9.16,4.26.81,7.64-3.1,7.61-8.54m-60-65.53a27.66,27.66,0,0,0,1.57,4.76,7.26,7.26,0,0,0,7.23,3.76c1.63-.18,3.24-2.35,4.46-3.92,1.91-2.48,1.36-5.36.7-8.17-1.26-5.33-6.66-7-10.74-3.34a8.54,8.54,0,0,0-3.22,6.91m24.8,29.77c0,5,2.52,8.44,6.23,8.46,4.31,0,8-3.86,8-8.42,0-5.14-3.07-8.66-7.54-8.67-3.93,0-6.67,3.53-6.67,8.63"/><path class="cls-1" d="M208.12,435.19q-94.17,0-188.32.06A7.9,7.9,0,0,1,13,432c-5.07-6.23-9.74-12.8-11.71-20.49C-1.53,400.57.14,390,8,381.29a52.32,52.32,0,0,1,9.72-8,11.26,11.26,0,0,1,5.76-1.41c4.2-.09,6.36,3.53,4.52,7.32S24,387,22.1,391a20.13,20.13,0,0,0-1.61,5.13c-.38,2.14-.22,4.39,2.37,5.19s3.79-1,4.74-2.79c1.72-3.17,3-6.56,4.83-9.69a22.59,22.59,0,0,1,4.23-5.31c.77-.7,2.94-1.13,3.43-.64a5.1,5.1,0,0,1,1,3.69c-.36,4.63-1.21,9.23-1.39,13.86-.14,3.53.62,7.16,3.25,9.77A12.49,12.49,0,0,0,48.36,413c1.71.47,3.65.12,5.49.12q113.63,0,227.26,0c5.49,0,11,.51,16.47.5,7.28,0,14.55-.48,21.83-.48,6.5,0,13,.4,19.49.49,2.3,0,4.6-.53,6.89-.5,5.15.07,10.3.46,15.44.49A46.83,46.83,0,0,0,371,413c3.92-.83,5.07-4.42,5.31-7.7.41-5.57.14-11.19.08-16.79,0-.71-.7-1.39-.77-2.11-.09-1-.25-2.29.28-2.87a3.35,3.35,0,0,1,2.82-.38c3.88,1.13,5,4.75,6.66,7.79,1,1.91,1.52,4.12,2.5,6.07,1.09,2.19,2.27,5,5.32,4.3,3.3-.76,3-4.08,2.3-6.23-1.48-4.45-3.71-8.67-5.66-13-.23-.51-.68-.92-1-1.42-1.21-2.1-2.51-4.27-.49-6.54a6.57,6.57,0,0,1,7.36-1.88c8.59,2.57,14,8.58,17.56,16.29,4.56,9.93,4.33,20-1,29.58a154.62,154.62,0,0,1-10.61,15.68c-.7,1-2.7,1.36-4.1,1.37q-37.05.14-74.1.08H208.12Z"/><path class="cls-1" d="M254.83,309.88c-.05,1-.14,2-.14,3,0,7.92,0,15.84,0,23.77,0,1.2,0,2.7-.65,3.57-3,3.92-6.16,7.67-9.27,11.48l-.66-.33c-.05-.81-.15-1.62-.15-2.43,0-7.45-.07-14.89,0-22.34a4.34,4.34,0,0,0-2.73-4.46,38,38,0,0,1-18.91-21.57c-5.88-17-1.51-37.89,15.16-49.4,3.93-2.71,8.28-3.25,12.82-3.36a9.37,9.37,0,0,0,1.68-.09c2.07-.46,2.77.38,2.75,2.38-.06,6.88,0,13.75,0,20.62v2.8l.79.41a16.69,16.69,0,0,0,1.9-2.24q6.6-10.9,13.08-21.88c1.06-1.81,2.27-2.29,4.47-2,3.42.39,6.93.1,11,.1-2.33,4-4.47,7.66-6.59,11.33q-7.74,13.4-15.46,26.78a5.88,5.88,0,0,0-.1,6.17c7.17,14.2,14.2,28.47,21.26,42.73a27.77,27.77,0,0,1,1,3c-4.53,0-8.71.25-12.83-.15-1.3-.13-2.81-1.81-3.56-3.14-4.14-7.4-8.06-14.91-12.09-22.37a31.47,31.47,0,0,0-1.81-2.68l-.94.32m-10.34-4.37c0-12.64,0-24.9,0-37.16,0-1.79-1.1-1.75-2.35-1-10.7,6.26-17.69,20.16-7.53,32.37,2.39,2.86,5.39,5.3,9.9,5.81"/><path class="cls-1" d="M154.42,352.3c0-10.46-.07-20.93.05-31.39,0-2.58-.75-3.84-3.32-4.78a34.52,34.52,0,0,1-19-47.38,31.88,31.88,0,0,1,20.07-17.56c10.92-3.46,23.58,1.9,30.24,10.26,11.27,14.15,9.54,34-.62,46.27-3.37,4.07-7.33,7.3-12.46,8.9-2.14.67-3.12,1.77-3,4.11.2,6,.2,12,.19,18a4.26,4.26,0,0,1-.78,2.61c-3.3,3.82-6.71,7.54-10.09,11.28l-1.21-.34m9.6-68.14h.06c0,4.67-.06,9.35,0,14,.05,3.23,1.28,4,4.19,2.52a19.82,19.82,0,0,0,8.8-8.43c5.68-10.85.35-20.13-9.86-24.18-2-.8-3.3-.18-3.24,2.35.11,4.57,0,9.15,0,13.72m-10.2.61h0c0-4.67.09-9.35,0-14-.1-3.87-.94-4.32-4.21-2.37a30.41,30.41,0,0,0-4.92,3.49c-11.83,10.59-4.44,25.49,5.53,29.07,2.68,1,3.6.37,3.64-2.42.07-4.58,0-9.16,0-13.74"/><path class="cls-1" d="M228.54,321.42c0,7.43.05,14.39-.08,21.35a2.67,2.67,0,0,1-1.86,1.78c-10.07.11-20.14.07-30.2.09-2.38,0-1.9-1.67-1.9-3q0-29.48,0-59c0-9.45,0-18.9,0-28.34,0-2.17.26-3.39,3-2.95,2,.32,4.2-.17,6.3-.4s2.66.61,2.64,2.61c-.07,11.64,0,23.28,0,34.92,0,10,.05,20-.07,30.06,0,2.25.61,3,2.95,2.94,6.26-.15,12.54-.05,19.19-.05"/><path class="cls-1" d="M217.51,77.15c-.73,5.64-1.61,11.24-6.14,15.51-3.7,3.49-8.13,3.52-11.34-.34a24.74,24.74,0,0,1-.44-30.44c3.69-4.8,9.91-4.36,13.67.65,3.27,4.35,3.67,9.47,4.25,14.62"/></g></g></svg>