<svg xmlns="http://www.w3.org/2000/svg" viewBox="0 0 711.99 125.04"><defs><style>.cls-1,.cls-2{fill:#81524b;}.cls-2{fill-rule:evenodd;}</style></defs><g id="Layer_2" data-name="Layer 2"><g id="Layer_1-2" data-name="Layer 1"><g id="PLK"><path class="cls-1" d="M96.74,58.76c1.26,0,2.28,0,3.29,0,.66,0,.88.19.87.85,0,1.53,0,3.07,0,4.6,0,.6-.22.76-.78.75-1.92,0-3.84,0-5.76,0-.7,0-1,.17-1,.91q0,21.9,0,43.79c0,.68.27.84.89.83,2.06,0,4.12,0,6.33,0,0,1.16,0,2.27,0,3.38,0,1.85.26,1.66-1.71,1.64-1.3,0-2.6-.15-3.9-.14s-2.87.14-4.31.14c-1.76,0-3.53-.15-5.29-.14l-65,.15H19.27v-5c.22,0,.47,0,.73,0h5.35c1.09,0,1.09,0,1.09-1.12q0-7.69,0-15.39,0-13.95,0-27.9c0-1.11,0-1.11-1.11-1.11h-7V61.8c0-.82,0-1.64,0-2.47,0-.42.15-.59.58-.58q1.17,0,2.34,0c.47,0,.75-.24.36-.66-1.39-1.51-1.87-3.45-2.63-5.26a7.72,7.72,0,0,1-.63-4.61,4.9,4.9,0,0,1,2.78-3.93A3.36,3.36,0,0,1,25.23,46,6,6,0,0,1,25,52.52a4.91,4.91,0,0,0-.95,2.75A1.72,1.72,0,0,0,25.37,57a1.61,1.61,0,0,0,2-.32c1.53-1.95,3-3.91,4.52-5.88a2.3,2.3,0,0,0,.2-.7c-.73-.17-1.38-.27-2-.47A6,6,0,0,1,26.46,46,41.34,41.34,0,0,1,24.56,41a6.43,6.43,0,0,1,.74-5.45,3.41,3.41,0,0,1,3.22-1.67,3.21,3.21,0,0,1,2.87,1.92A6.26,6.26,0,0,1,31,42.57a6.42,6.42,0,0,0-.85,2.27c-.22,1.1,1,2.26,2.34,2.39a2.76,2.76,0,0,0,2.48-.9c1.08-1.28,2.13-2.59,3.17-3.91a4.08,4.08,0,0,0,.42-.89,2.46,2.46,0,0,0-.52-.22c-2.57-.34-4-2-4.86-4.2-.6-1.46-1.22-2.92-1.68-4.43a6.39,6.39,0,0,1,.55-5.53,3.3,3.3,0,0,1,3.43-1.82A3.74,3.74,0,0,1,38.58,28a6.67,6.67,0,0,1-.76,5.95,5.41,5.41,0,0,0-.7,2.21,2.12,2.12,0,0,0,1.6,2.31,2.17,2.17,0,0,0,2.64-.59c1.16-1.42,2.23-2.93,3.32-4.41a2.56,2.56,0,0,0,.23-.65c-.36-.1-.64-.19-.92-.25a5.76,5.76,0,0,1-4.09-3.85,47.38,47.38,0,0,1-1.71-4.51c-.68-2.28-.62-4.51,1.16-6.37a3.55,3.55,0,0,1,5.62.68c1.24,2.13.9,4.23-.23,6.3a12.45,12.45,0,0,0-1,2.31,2.23,2.23,0,0,0,1.4,2.59,2.18,2.18,0,0,0,2.66-.58,6.18,6.18,0,0,0,2.11-5.58,35.21,35.21,0,0,1,0-4.11c0-.69-.13-1.06-1-.83a1.11,1.11,0,0,1-1-.33,2.08,2.08,0,0,1-.34-1.47,9,9,0,0,1,1.19-2L58.5.54c.5-.73.71-.72,1.22,0C62.84,5.24,66,9.89,69.1,14.53A4.64,4.64,0,0,1,70,17.74c0,.53-.18.81-.73.86s-.83.35-.82,1c0,2,0,4,0,6.06a1.36,1.36,0,0,0,.26.75c.76,1,1.54,1.94,2.34,2.89a1.61,1.61,0,0,0,2,.68,2.45,2.45,0,0,0,1.71-2.11,4.11,4.11,0,0,0-.9-2.67,6,6,0,0,1-.13-6.59c1.28-2.24,3.69-2.18,5.33-.71a5.15,5.15,0,0,1,1.39,5.32,46.11,46.11,0,0,1-2.07,6.1,5.54,5.54,0,0,1-3.78,3.4c-.77.23-.43.82-.17,1.2.91,1.31,1.87,2.58,2.83,3.85a2.46,2.46,0,0,0,.62.54,2,2,0,0,0,2.54-.08c1-.71,1.41-1.55,1-2.52s-1-1.86-1.45-2.83a5.63,5.63,0,0,1,.87-6.21,3.35,3.35,0,0,1,5.16,0c1.39,1.49,1.41,3.3,1.13,5.1a20.93,20.93,0,0,1-2.45,6.74,5.24,5.24,0,0,1-3.43,2.77c-.85.21-1,.49-.43,1.21.89,1.22,1.81,2.42,2.7,3.65a2.74,2.74,0,0,0,4.77-.54,2.64,2.64,0,0,0-.44-2.47,5.87,5.87,0,0,1-1.4-4.51,10.75,10.75,0,0,1,1-3.07c1.27-2.46,4.77-1.66,5.88.16a6.8,6.8,0,0,1,.51,6.06C93.46,43,93,44.12,92.58,45.3c-.89,2.43-2.33,4.29-5.07,4.78-.73.13-.65.51-.36.92,1.28,1.78,2.55,3.57,3.89,5.31.81,1,1.54,1.24,2.33.8a2.28,2.28,0,0,0,1.11-2.87,10.62,10.62,0,0,0-1.07-1.84A5.74,5.74,0,0,1,94,45.27a3.32,3.32,0,0,1,5.15.3,5.9,5.9,0,0,1,1.07,5.21,20,20,0,0,1-3.51,8M60,64.94c-8.18,0-16.36,0-24.54,0-2.61,0-2.29-.54-2.31,2.26-.07,6.41,0,12.83,0,19.25q0,7.37,0,14.72c0,2.28,0,4.56,0,6.83,0,.6,0,1.13.91,1.13,3.78,0,7.56.07,11.34.08,7.57,0,15.14,0,22.71,0,5.62,0,11.24,0,16.86-.06,1.67,0,1.67-.1,1.67-1.73V66.63a2.59,2.59,0,0,1,0-.74c.27-.85-.15-1-.88-1-8.57,0-17.14,0-25.71,0m-.57-5.2H88.26a5.12,5.12,0,0,0,.93-.19,4.39,4.39,0,0,0-.42-.93c-.8-1.08-1.59-2.17-2.48-3.18a2.31,2.31,0,0,0-1.41-.83c-2.58-.08-5.17,0-7.76,0q-21.53,0-43.05,0a1.38,1.38,0,0,0-1,.34c-1,1.22-2,2.47-3,3.74a3.41,3.41,0,0,0-.33.88,6.14,6.14,0,0,0,.93.19H59.47m22.88-9.38a4.47,4.47,0,0,0-.35-.93c-1.07-1.4-2.15-2.78-3.26-4.16a1.08,1.08,0,0,0-.68-.39c-1.07,0-2.14,0-3.21,0-3,0-6,0-9.06,0s-5.92.12-8.87.13c-2.34,0-4.67-.11-7-.13-2.93,0-5.87,0-8.81,0a1.52,1.52,0,0,0-1,.48C39,46.67,38,48,37,49.37a3.25,3.25,0,0,0-.31.79,4.45,4.45,0,0,0,.85.18l43.75,0h1m-32-18.77c.23.11.28.15.33.15l17.18.14c.58,0,.71-.32.37-.73a29.47,29.47,0,0,0-2-2.28,1.92,1.92,0,0,1-.66-1.51q.06-4.3,0-8.63a3.26,3.26,0,0,0-.46-1.61c-1.73-2.73-3.51-5.43-5.29-8.14a9.52,9.52,0,0,0-.69-.86c-1.57,2.34-3,4.55-4.52,6.75-1,1.43-2,2.76-1.84,4.68.16,1.62,0,3.26,0,4.9,0,1.23,0,2.46,0,3.69a2,2,0,0,1-.5.91c-.6.84-1.23,1.66-1.9,2.54M44,40.31l.15.26c.43,0,.85.07,1.28.07H74.13c.71,0,.91-.3.51-.83-.87-1.16-1.78-2.3-2.74-3.39A1.68,1.68,0,0,0,70.76,36c-3.25,0-6.5.09-9.75.09-4.14,0-8.28-.07-12.42-.1-1,0-1.86.15-2.28,1.2a3.43,3.43,0,0,1-.48.67L44,40.31m-19.75,8.5a2.52,2.52,0,0,0-1.74-2.3,2,2,0,0,0-2.23,1.32,4.46,4.46,0,0,0-.22,1.51,2.27,2.27,0,0,0,1.63,2.19c.89.22,1.52-.1,2.09-1.18a8.6,8.6,0,0,0,.47-1.54M33.09,30.3a2.2,2.2,0,0,0,1.79,2.41c.63.2,1.59-.4,2-1.34a3.77,3.77,0,0,0,.26-1.9A2,2,0,0,0,34,28.08a2.28,2.28,0,0,0-.94,2.22m-2.76,8.54a4,4,0,0,0,0-.49,2.6,2.6,0,0,0-1.58-2,1.6,1.6,0,0,0-1.8.51,3.06,3.06,0,0,0-.24,3.7,2.29,2.29,0,0,0,1.33.69,2.32,2.32,0,0,0,2.29-2.44M39.67,21.6c.1,1.26.48,1.93,1.38,2.27a1.89,1.89,0,0,0,2.14-.4,3,3,0,0,0,.3-3.24c-1-1.58-2.47-1.61-3.42,0a5.6,5.6,0,0,0-.4,1.39m39.23.21a8.44,8.44,0,0,0-.64-1.72,1.7,1.7,0,0,0-2.86-.27,2.71,2.71,0,0,0-.27,3.46,2.74,2.74,0,0,0,1.58.87c1.12.13,2-1,2.19-2.34m19.56,27.4a5.61,5.61,0,0,0,0-.58A2.58,2.58,0,0,0,97,46.7a1.93,1.93,0,0,0-2.11.79A3.43,3.43,0,0,0,94.43,49a2.34,2.34,0,0,0,1.84,2.63c1.23.23,2.2-.89,2.19-2.45M81.24,30.38a7.09,7.09,0,0,0,.45,1.37,2.08,2.08,0,0,0,2.07,1.08c.47,0,.93-.68,1.28-1.13a2.63,2.63,0,0,0,.21-2.35,1.8,1.8,0,0,0-3.09-1,2.46,2.46,0,0,0-.92,2m7.12,8.55c0,1.44.73,2.43,1.79,2.43a2.38,2.38,0,0,0,2.29-2.42,2.24,2.24,0,0,0-2.16-2.49c-1.13,0-1.92,1-1.92,2.48"/><path class="cls-1" d="M59.79,125q-27.06,0-54.1,0a2.28,2.28,0,0,1-2-.93,15.83,15.83,0,0,1-3.37-5.89,9,9,0,0,1,1.93-8.68,15.14,15.14,0,0,1,2.8-2.29,3.16,3.16,0,0,1,1.65-.4A1.37,1.37,0,0,1,8,109c-.55,1.13-1.15,2.23-1.69,3.37a5.46,5.46,0,0,0-.46,1.47c-.11.62-.07,1.26.68,1.49s1.09-.3,1.36-.8c.49-.91.87-1.88,1.39-2.78a6.38,6.38,0,0,1,1.21-1.53c.22-.2.85-.32,1-.18a1.45,1.45,0,0,1,.29,1.06c-.1,1.33-.35,2.65-.4,4a3.64,3.64,0,0,0,.94,2.81,3.55,3.55,0,0,0,1.54.8,5.93,5.93,0,0,0,1.58,0H80.76c1.57,0,3.15.15,4.73.14,2.09,0,4.18-.13,6.27-.14,1.87,0,3.73.12,5.6.14.66,0,1.32-.15,2-.14,1.48,0,3,.13,4.43.14a13.16,13.16,0,0,0,2.81-.19,2.13,2.13,0,0,0,1.53-2.21c.11-1.6,0-3.22,0-4.83,0-.2-.2-.4-.22-.61s-.07-.65.08-.82a1,1,0,0,1,.81-.11c1.11.33,1.44,1.37,1.91,2.24.3.55.44,1.18.72,1.74s.65,1.44,1.53,1.24.86-1.17.66-1.79c-.43-1.28-1.07-2.49-1.63-3.73a3.62,3.62,0,0,0-.27-.41c-.35-.6-.73-1.22-.14-1.88a1.88,1.88,0,0,1,2.11-.54,8,8,0,0,1,5,4.68,9,9,0,0,1-.29,8.5,43.81,43.81,0,0,1-3,4.5,1.64,1.64,0,0,1-1.18.4q-10.65,0-21.29,0H59.79Z"/><path class="cls-1" d="M73.21,89c0,.29,0,.57,0,.86,0,2.28,0,4.55,0,6.83a1.78,1.78,0,0,1-.19,1c-.85,1.13-1.76,2.21-2.66,3.3l-.19-.09c0-.24,0-.47,0-.7,0-2.14,0-4.28,0-6.42a1.24,1.24,0,0,0-.78-1.28,10.93,10.93,0,0,1-5.44-6.2,12.29,12.29,0,0,1,4.36-14.19,6.42,6.42,0,0,1,3.68-1,2.69,2.69,0,0,0,.49,0c.59-.13.79.11.79.69,0,2,0,3.94,0,5.92v.8l.23.12a5.62,5.62,0,0,0,.55-.64c1.26-2.09,2.52-4.18,3.75-6.29A1.11,1.11,0,0,1,79,71.18a29.58,29.58,0,0,0,3.15,0c-.66,1.15-1.28,2.2-1.89,3.25l-4.44,7.7a1.68,1.68,0,0,0,0,1.77c2.06,4.08,4.08,8.18,6.11,12.27.11.24.17.51.29.87-1.3,0-2.5.07-3.69,0-.37,0-.81-.52-1-.9C76.28,94,75.15,91.84,74,89.7c-.15-.27-.35-.51-.52-.77l-.27.09m-3-1.25c0-3.63,0-7.16,0-10.68,0-.51-.32-.5-.67-.29-3.08,1.8-5.09,5.79-2.17,9.3a4.26,4.26,0,0,0,2.85,1.67"/><path class="cls-1" d="M44.36,101.21c0-3,0-6,0-9a1.22,1.22,0,0,0-1-1.37A9.92,9.92,0,0,1,38,77.2a9.14,9.14,0,0,1,5.76-5c3.14-1,6.78.55,8.69,3a10.7,10.7,0,0,1-.18,13.29A7.6,7.6,0,0,1,48.65,91a1,1,0,0,0-.87,1.18c0,1.72,0,3.45,0,5.18a1.3,1.3,0,0,1-.22.75c-1,1.09-1.93,2.16-2.9,3.24l-.35-.1m2.76-19.58h0c0,1.35,0,2.69,0,4,0,.93.37,1.15,1.21.72A5.67,5.67,0,0,0,50.87,84C52.5,80.85,51,78.18,48,77c-.58-.23-.95,0-.93.67,0,1.31,0,2.63,0,3.94m-2.93.18h0c0-1.34,0-2.69,0-4,0-1.11-.27-1.24-1.21-.68a9.23,9.23,0,0,0-1.41,1c-3.4,3-1.28,7.32,1.59,8.35.77.28,1,.11,1-.69,0-1.32,0-2.64,0-4"/><path class="cls-1" d="M65.65,92.34c0,2.13,0,4.13,0,6.13a.76.76,0,0,1-.53.51c-2.9,0-5.79,0-8.68,0-.68,0-.54-.48-.54-.87v-17c0-2.71,0-5.43,0-8.14,0-.62.07-1,.87-.84a7,7,0,0,0,1.81-.12c.59-.06.76.17.76.75,0,3.34,0,6.69,0,10,0,2.88,0,5.76,0,8.64,0,.64.18.86.85.84,1.8,0,3.6,0,5.51,0"/><path class="cls-1" d="M62.49,22.16c-.22,1.62-.47,3.23-1.77,4.46a2.07,2.07,0,0,1-3.26-.1,7.1,7.1,0,0,1-.12-8.74,2.35,2.35,0,0,1,3.92.18,8.1,8.1,0,0,1,1.23,4.2"/><path class="cls-1" d="M157.11,44.94V60.07h3.41c2.46,0,4.09-.28,4.92-.84a5.4,5.4,0,0,0,1.95-2.62,11.41,11.41,0,0,0,.7-4.15,10.25,10.25,0,0,0-1-4.79,4.48,4.48,0,0,0-2.5-2.38,18.34,18.34,0,0,0-4.48-.35Zm29.53,44.14V44.94h-9.17V36H202v9h-9.12V89.08Zm14,0V78.91h5.92V89.08Zm-49.81,0V36h10c3.8,0,6.27.26,7.43.79,1.77.8,3.25,2.54,4.45,5.2a25.5,25.5,0,0,1,1.79,10.35,28.13,28.13,0,0,1-1,8.23,15.26,15.26,0,0,1-2.62,5.24,8.11,8.11,0,0,1-3.24,2.51,20.93,20.93,0,0,1-6.46.77h-4.07v20Z"/><path class="cls-1" d="M528.12,59.53V46.6c0-1.67,0-4.73,3.18-4.73s3.2,3,3.2,4.73V59.53Zm-5.23,29.23h5.23v-24h6.38v24h5.22V46.6c0-2.18.07-4.44-1.9-7.27a7.79,7.79,0,0,0-6.45-3c-3.73,0-8.48,2.54-8.48,10.32Z"/><path class="cls-1" d="M463.83,62.48q0,9,2.52,13.71c1.68,3.11,3.82,4.67,6.4,4.67s4.7-1.54,6.37-4.63,2.48-7.72,2.48-13.9-.8-10.65-2.42-13.65-3.76-4.5-6.43-4.5-4.83,1.52-6.47,4.55-2.45,7.62-2.45,13.75m-6.67.36a54,54,0,0,1,1.47-13.66,29.47,29.47,0,0,1,3-7.31,15,15,0,0,1,4.14-4.8,11.72,11.72,0,0,1,6.91-2.1q7.09,0,11.35,7.3t4.25,20.32q0,12.9-4.22,20.19t-11.29,7.29q-7.15,0-11.38-7.25T457.16,62.84Z"/><polygon class="cls-1" points="494.25 89.11 494.25 35.93 499.34 35.93 499.34 59.48 509.6 35.93 516.41 35.93 506.93 56.64 516.91 89.11 510.34 89.11 503.43 64.14 499.34 73.03 499.34 89.11 494.25 89.11"/><path class="cls-2" d="M433.49,69.35V43.12c-5.31,1.51-9.23,6.81-9.23,13.12s3.92,11.61,9.23,13.11m0,19.53V76c-8.61-1.6-15.18-9.85-15.18-19.79s6.57-18.19,15.18-19.8v-.28h5.09V79.9h12.6v9Z"/><path class="cls-1" d="M700.38,59.53V46.6c0-1.67,0-4.73,3.19-4.73s3.19,3,3.19,4.73V59.53Zm-5.22,29.23h5.22v-24h6.38v24H712V46.6c0-2.18.07-4.44-1.9-7.27a7.79,7.79,0,0,0-6.45-3c-3.73,0-8.48,2.54-8.48,10.32Z"/><path class="cls-1" d="M651.62,59.53V46.6c0-1.67,0-4.73,3.19-4.73s3.19,3,3.19,4.73V59.53Zm-5.23,29.23h5.23v-24H658v24h5.23V46.6c0-2.18.06-4.44-1.9-7.27a7.79,7.79,0,0,0-6.45-3c-3.74,0-8.49,2.54-8.49,10.32Z"/><path class="cls-1" d="M622.9,60.5h3.75q3.65,0,4.56-.66a4.3,4.3,0,0,0,1.42-2.25,32.12,32.12,0,0,0,.51-6.06c0-2.14,0-10.19-2.9-10.35-.64,0-2.28,0-3.38,0h-4Zm-5.09,28.6V35.93h10.68q4,0,5.86,1.44a9.9,9.9,0,0,1,2.92,5.08,29.34,29.34,0,0,1,1.1,8.38,25.52,25.52,0,0,1-1.65,9.89,8,8,0,0,1-5,4.92,19.3,19.3,0,0,1,2.7,4.45,81.06,81.06,0,0,1,2.87,8.64l3.07,10.37h-6.07L630.7,77.49q-2-6.18-2.68-7.79a5.56,5.56,0,0,0-1.53-2.21,4.41,4.41,0,0,0-2.56-.59h-1V89.1Z"/><polygon class="cls-1" points="669.21 87.72 669.21 36.94 674.13 36.94 684.47 61.1 684.47 36.94 689.17 36.94 689.17 88.1 684.09 88.1 683.96 70.19 673.91 49.29 673.91 87.72 669.21 87.72"/><rect class="cls-1" x="606.89" y="36.13" width="4.94" height="52.78"/><path class="cls-2" d="M578.26,40.81V69.42c-7.48,0-10.69-14.46-8.25-20.69,1.27-3.25,3.62-6.75,8.25-7.92m22.65-7-13,22v4.45l11.49,24.67h-6.19l-8.6-16.57L582.74,71l.4,13.41-5.14,7-.56-13.63s-14.11-2.74-13.78-23.11,14.54-21.58,20.21-21L583.39,48l9.18-14.2Z"/><path class="cls-1" d="M382.77,59.53V46.6c0-1.67,0-4.73,3.2-4.73s3.19,3,3.19,4.73V59.53Zm-5.22,29.23h5.22v-24h6.39v24h5.22V46.6c0-2.18.07-4.44-1.9-7.27a7.79,7.79,0,0,0-6.45-3c-3.73,0-8.48,2.54-8.48,10.32Z"/><path class="cls-1" d="M331.33,59.53V46.6c0-1.67,0-4.73,3.19-4.73s3.19,3,3.19,4.73V59.53ZM326.1,88.76h5.23v-24h6.38v24h5.22V46.6c0-2.18.07-4.44-1.9-7.27a7.79,7.79,0,0,0-6.45-3c-3.73,0-8.48,2.54-8.48,10.32Z"/><polygon class="cls-1" points="348.92 89.11 348.92 35.93 354 35.93 354 59.48 364.26 35.93 371.08 35.93 361.6 56.64 371.57 89.11 365.01 89.11 358.09 64.14 354 73.03 354 89.11 348.92 89.11"/><path class="cls-1" d="M299.69,71.88l4.95-1a20.47,20.47,0,0,0,1.8,7.71A4.11,4.11,0,0,0,310.11,81a4,4,0,0,0,3.68-2.19A10.3,10.3,0,0,0,315,73.7a9,9,0,0,0-.52-3.22,5.22,5.22,0,0,0-1.82-2.29,37,37,0,0,0-4-2.33,13,13,0,0,1-5.7-5.28,22.88,22.88,0,0,1-2.31-10.74,26,26,0,0,1,1.08-7.62,11.87,11.87,0,0,1,3.13-5.4A7.06,7.06,0,0,1,309.78,35a7.63,7.63,0,0,1,7.1,4.43c1.59,3,2.42,6.89,2.5,11.83l-5.09.37a14.52,14.52,0,0,0-1.38-5.91,3.49,3.49,0,0,0-3.19-1.81,3.86,3.86,0,0,0-3.43,1.93,6,6,0,0,0-.81,3.32,6.41,6.41,0,0,0,.76,3.23c.63,1.15,2.19,2.34,4.65,3.57a18.44,18.44,0,0,1,5.46,3.83,13.83,13.83,0,0,1,2.77,5.41,30.94,30.94,0,0,1,1,8.46,29.64,29.64,0,0,1-1.2,8.57,12.54,12.54,0,0,1-3.39,5.93,7.94,7.94,0,0,1-5.47,1.94q-4.77,0-7.32-4.65t-3.05-13.54"/><polygon class="cls-1" points="274.62 89.11 274.62 35.93 293.22 35.93 293.22 44.92 279.71 44.92 279.71 56.73 292.27 56.73 292.27 65.71 279.71 65.71 279.71 80.12 293.71 80.12 293.71 89.11 274.62 89.11"/><path class="cls-2" d="M246.27,67.43V38.14C240.36,39.78,236,45.72,236,52.79s4.37,13,10.28,14.64m6.6-29.29V67.43c5.91-1.64,10.29-7.57,10.29-14.64S258.78,39.78,252.87,38.14Zm-3.3-6.54c10.53,0,19.07,9.49,19.07,21.19,0,10.45-6.81,19.13-15.77,20.86v14l-6.6,5.78V73.65c-9-1.73-15.77-10.41-15.77-20.86C230.5,41.09,239,31.6,249.57,31.6Z"/></g></g></g></svg>