<?xml version="1.0" encoding="UTF-8"?>
<svg id="Layer_1" data-name="Layer 1" xmlns="http://www.w3.org/2000/svg" viewBox="0 0 841.89 595.28">
  <defs>
    <style>
      .cls-1 {
        letter-spacing: .07em;
      }

      .cls-2 {
        letter-spacing: -.01em;
      }

      .cls-3 {
        letter-spacing: .09em;
      }

      .cls-4 {
        letter-spacing: .02em;
      }

      .cls-5 {
        letter-spacing: .06em;
      }

      .cls-6 {
        letter-spacing: .11em;
      }

      .cls-7 {
        letter-spacing: .07em;
      }

      .cls-8 {
        letter-spacing: .09em;
      }

      .cls-9 {
        letter-spacing: .08em;
      }

      .cls-10 {
        letter-spacing: .1em;
      }

      .cls-11 {
        letter-spacing: .07em;
      }

      .cls-12, .cls-13 {
        fill: #1280b7;
      }

      .cls-13 {
        font-family: AcuminConcept-Semibold, 'Acumin Variable Concept';
        font-size: 28.46px;
        font-variation-settings: 'wght' 600, 'wdth' 100, 'slnt' 0;
        font-weight: 600;
      }

      .cls-14 {
        letter-spacing: .07em;
      }

      .cls-15 {
        letter-spacing: .09em;
      }

      .cls-16 {
        fill: #f37d27;
      }

      .cls-17 {
        letter-spacing: .07em;
      }

      .cls-18 {
        letter-spacing: .07em;
      }
    </style>
  </defs>
  <g id="Lelang_Raya" data-name="Lelang Raya">
    <path class="cls-16" d="M420.75,30.27c63.08,63.14,125.83,125.96,188.93,189.12-1.18,1.35-2.55,3.1-4.11,4.66-28.14,28.09-56.31,56.16-84.47,84.23-4.55,4.54-4.17,3.55-7.53.18-30.16-30.25-60.41-60.41-90.59-90.64-1.51-1.51-2.4-2.2-4.3-.28-23.79,23.98-47.68,47.87-71.55,71.78-6.63,6.64-13.31,13.21-19.9,19.89-2.11,2.14-3.59,2.55-6.05.07-28.67-28.85-57.47-57.57-86.23-86.35-3.72-3.72-3.61-3.7.03-7.32,27.84-27.78,55.63-55.6,83.46-83.39,25.99-25.95,52.03-51.86,78.03-77.81,6.88-6.86,13.7-13.79,20.56-20.67,1.11-1.11,2.29-2.14,3.73-3.47ZM516.71,259.68c.81-.55,1.44-.84,1.9-1.3,12.5-12.58,24.98-25.19,37.5-37.77,1.39-1.39,1.16-2.44-.18-3.67-2.42-2.21-4.82-4.45-7.13-6.76-41.1-41.02-82.19-82.05-123.28-123.08-4.76-4.75-4.73-4.74-9.46-.02-30.13,30.1-60.26,60.21-90.41,90.29-13.19,13.17-26.43,26.3-39.64,39.45-1.16,1.16-2.77,2.04-.75,4.06,12.25,12.2,24.44,24.45,36.53,36.8,1.82,1.86,2.8,1.78,4.57,0,30.79-30.9,61.64-61.74,92.49-92.58.61-.61,1.34-1.09,1.63-1.32,32.15,32.04,64.06,63.84,96.23,95.89Z"/>
    <path class="cls-16" d="M549.94,381.39c-2.2.1-3.32.2-4.43.19-14.91-.16-29.82-.25-44.73-.61-1.88-.05-4.18-1.06-5.53-2.39-24.13-23.8-48.17-47.69-72.13-71.67-2.3-2.3-3.29-1.95-5.45.29-10.04,10.39-20.38,20.49-30.59,30.71-13.01,13.01-26.06,25.99-38.98,39.09-2.71,2.75-5.54,3.99-9.52,3.92-14.01-.26-28.02-.11-42.03-.11-1.21,0-2.43,0-4.59,0,1.19-1.48,1.77-2.35,2.49-3.08,38.51-38.49,77.03-76.96,115.55-115.44,2.56-2.55,5.19-5.03,7.64-7.69,1.88-2.04,3.25-1.98,5.25.04,18.68,18.86,37.45,37.64,56.21,56.41,21.8,21.81,43.63,43.59,65.47,65.37,1.49,1.49,3.09,2.86,5.37,4.96Z"/>
    <path class="cls-12" d="M145.89,418.62c5.29,0,10.57-.04,15.86,0,8.92.09,17.85.03,26.76.42,13.97.61,26.03,13.16,26.58,27.24.52,13.52-5.46,23.15-17.46,29.15-4.66,2.33-4.76,2.35-2.1,6.81,5.37,9.01,10.85,17.96,16.27,26.94.63,1.05,1.21,2.13,2.17,3.83-4.34,0-8.2.13-12.04-.11-.77-.05-1.57-1.48-2.14-2.4-6.01-9.81-12.03-19.61-17.88-29.52-1.12-1.9-2.22-2.73-4.47-2.68-6.52.15-13.05.05-19.91.05,0,2.5,0,4.73,0,6.95-.02,8.25-.09,16.5-.03,24.74.02,2.24-.6,3.19-3.05,3.24-8.05.17-8.05.26-8.03-7.73.02-10.62,0-21.24.08-31.86.04-5.98.1-5.96,5.91-5.93,6.21.04,12.43.06,18.64.07.74,0,1.48-.13,2.83-.26-9.7-16.19-19.16-31.98-28.62-47.77.21-.4.43-.81.64-1.21ZM164.45,429.04c.65,1.58.92,2.52,1.4,3.33,2.93,4.94,5.89,9.86,8.86,14.78,3.78,6.27,7.49,12.57,11.44,18.73.59.93,2.43,1.82,3.44,1.6,8.2-1.84,15.2-11.05,15.07-19.46-.14-9.07-6.63-17.09-15.81-18.37-6.09-.85-12.36-.46-18.55-.61-1.74-.04-3.48,0-5.86,0Z"/>
    <path class="cls-12" d="M611.23,513.02c2.51-5.92,4.64-11.09,6.88-16.22,10.65-24.36,21.31-48.72,32.04-73.04.93-2.12,1.3-5.61,4.44-5.01,1.55.3,2.99,2.97,3.82,4.85,11.61,26.28,23.14,52.59,34.61,78.93,1.4,3.22,2.32,6.66,3.62,10.48h-85.41ZM627.2,502.07h54.18c-9.05-21.25-17.82-41.82-26.59-62.4-.39.07-.79.14-1.18.21-8.76,20.62-17.52,41.24-26.42,62.19Z"/>
    <path class="cls-12" d="M390.58,513.04c-1.97.1-3.19.22-4.41.22-25.07,0-50.15,0-75.22-.01-.9,0-1.81-.04-2.71-.06-2.22-.06-2.74-1.14-1.92-3.11,1-2.38,1.87-4.82,2.91-7.19,9.21-21.06,18.45-42.11,27.67-63.16,2.76-6.29,5.4-12.64,8.33-18.85.5-1.06,2.14-1.97,3.37-2.15.71-.1,2.02,1.24,2.44,2.2,12.52,28.58,24.98,57.19,37.41,85.82.79,1.83,1.29,3.78,2.13,6.29ZM374.88,502.28c-.25-.92-.33-1.47-.53-1.95-8.23-19.4-16.47-38.79-24.75-58.17-.38-.89-1.22-1.59-2.07-2.65-8.98,21.17-17.7,41.73-26.62,62.78h53.97Z"/>
    <path class="cls-12" d="M462.77,418.58c3.94,0,7.04-.37,9.98.15,1.57.28,3.32,1.83,4.22,3.29,7.25,11.7,14.31,23.51,21.44,35.28.51.83,1.09,1.62,2.04,3.04,1.46-2.17,2.67-3.85,3.75-5.61,6.55-10.66,13.18-21.28,19.52-32.06,1.86-3.16,4.09-4.52,7.66-4.17,2,.19,4.03.04,6.89.04-1.2,2.36-2.01,4.27-3.09,6-9.12,14.64-18.33,29.23-27.38,43.91-1,1.62-1.67,3.73-1.7,5.63-.16,11.86-.17,23.72-.03,35.58.03,2.8-.79,3.71-3.61,3.71-6.89,0-6.89.13-6.88-6.78,0-9.83-.03-19.65.02-29.48.02-3.72-.92-7.02-2.96-10.2-8.8-13.79-17.48-27.66-26.16-41.52-1.23-1.97-2.24-4.08-3.71-6.8Z"/>
    <text class="cls-13" transform="translate(145.25 557.59)"><tspan class="cls-8" x="0" y="0">P</tspan><tspan class="cls-7" x="20.94" y="0">T </tspan><tspan class="cls-9" x="48.66" y="0">B</tspan><tspan class="cls-11" x="69.83" y="0">A</tspan><tspan class="cls-6" x="91.15" y="0">L</tspan><tspan class="cls-11" x="110.73" y="0">A</tspan><tspan class="cls-7" x="132.04" y="0">I </tspan><tspan class="cls-14" x="151.85" y="0">L</tspan><tspan class="cls-17" x="170.29" y="0">E</tspan><tspan class="cls-6" x="189.75" y="0">L</tspan><tspan class="cls-11" x="209.33" y="0">A</tspan><tspan class="cls-7" x="230.64" y="0">NG </tspan><tspan class="cls-15" x="286.56" y="0">R</tspan><tspan class="cls-10" x="307.79" y="0">A</tspan><tspan class="cls-5" x="329.87" y="0">J</tspan><tspan class="cls-4" x="342.77" y="0">AW</tspan><tspan class="cls-11" x="390.06" y="0">A</tspan><tspan class="cls-14" x="411.38" y="0">L</tspan><tspan class="cls-1" x="429.82" y="0">I </tspan><tspan class="cls-18" x="449.62" y="0">K</tspan><tspan class="cls-11" x="470.57" y="0">A</tspan><tspan class="cls-3" x="491.88" y="0">R</tspan><tspan class="cls-2" x="513" y="0">Y</tspan><tspan class="cls-1" x="529.96" y="0">A</tspan></text>
  </g>
</svg>