<?xml version="1.0" encoding="UTF-8"?>
<svg id="Layer_1" data-name="Layer 1" xmlns="http://www.w3.org/2000/svg" viewBox="0 0 841.89 595.28">
  <defs>
    <style>
      .cls-1 {
        fill: #366897;
      }

      .cls-2 {
        fill: #a5a5a5;
      }

      .cls-3 {
        font-family: JosefinSans-Regular, 'Josefin Sans';
        font-size: 49.99px;
        font-variation-settings: 'wght' 400;
      }
    </style>
  </defs>
  <g id="SMS">
    <path class="cls-2" d="M524.32,366.52s129.36,89.52,243.99-24.02c0,0,13.65,4.37,10.37,47.49,0,0,56.22-73.69-19.65-144.1,0,0-30.57,176.85-234.71,120.63Z"/>
    <text class="cls-3" transform="translate(43.17 467.98)"><tspan x="0" y="0">SENTRA MITRA SELARAS</tspan></text>
    <g>
      <path class="cls-1" d="M352.23,359.1c32.36-39.14,63.28-76.54,94.2-113.93.84.36,1.69.73,2.53,1.09-3.06,33.73-6.12,67.46-9.21,101.48h51.57c5.11-77.13,10.21-153.99,15.42-232.6-2.6,1.85-4.34,2.74-5.6,4.07-1.89,2-3.37,4.39-5.16,6.5-21.91,25.76-43.86,51.48-65.77,77.23-15.23,17.9-30.32,35.93-45.7,53.71-4.67,5.39-6.18,4.82-8.32-1.9-8.28-25.91-16.53-51.83-24.84-77.73-5.54-17.27-11.12-34.53-16.79-51.75-1.01-3.05-2.57-5.92-4.61-10.53-38.25,78.73-75.64,155.7-113.34,233.29,15.73,0,30.56.07,45.38-.12,1.3-.02,3.13-1.45,3.77-2.71,4.88-9.47,9.74-18.97,14.22-28.63,10.71-23.1,21.19-46.3,31.81-69.44.66-1.45,1.75-2.7,3.36-5.12,12.55,39.65,24.66,77.89,37.07,117.08ZM694.61,179.37c4.6-18.08,8.9-34.96,13.24-51.97-19.64-7.11-39.06-11.35-59.57-10.6-32.68,1.2-59.39,12.93-77.53,41.25-9.1,14.22-13.15,29.44-10.52,46.28,2.9,18.53,14.98,29.67,30.17,38.8,10.99,6.6,22,13.44,31.87,21.54,12.27,10.07,11.33,25.93-1.28,35.66-3.66,2.83-8.1,5.07-12.53,6.41-13.92,4.18-28.02,3.2-41.32-2.02-11.45-4.49-22.23-10.67-33.63-16.26.5-.53.07-.29.01.02-3.5,18-7.06,35.99-10.26,54.04-.2,1.14,2.1,3.65,3.59,4.01,7.48,1.78,15.05,3.23,22.65,4.49,23.84,3.96,47.67,5.18,70.89-3.14,32.6-11.67,55.09-33.34,64.3-67.33,4.5-16.62,3.32-32.66-10.11-44.99-10.75-9.87-22.48-18.72-34.16-27.52-7.23-5.46-15.6-9.44-22.66-15.08-7.32-5.85-8.23-13.08-3.8-20.62,5.02-8.54,13.12-12.43,22.61-13.27,18.84-1.68,35.22,5.24,50.59,15.26,2.08,1.36,4.12,2.77,7.46,5.03ZM60.79,288.5c-3.35,14.7-6.96,30.26-10.41,45.85-2.05,9.25-.76,11.13,8.42,13.17,2.12.47,4.28.75,6.41,1.15,22.6,4.28,45.16,7.58,68.22,2.93,35.86-7.22,62.5-26.95,75.2-60.99,12.08-32.38,6.72-46.3-17.95-64.62-13.63-10.12-27.53-19.87-41.31-29.79-1.44-1.04-2.92-2.05-4.27-3.21-7.99-6.88-8.76-15.32-2.06-23.46,5.8-7.04,13.73-9.79,22.46-10.43,19.15-1.41,35.33,6.61,50.93,16.36,1.7,1.07,3.46,2.04,5.73,3.38,4.72-17.85,9.19-34.74,13.66-51.63-19.31-6.34-38.76-11.63-59.55-10.54-30.99,1.62-57.39,11.61-75.63,38.28-9.78,14.31-15.93,29.46-13.57,47.23,2.63,19.81,15.41,31.58,31.43,41.32,10.43,6.34,21.05,12.8,30.13,20.85,15.47,13.7,13.52,27.49-4.08,38.33-1.01.62-2.04,1.22-3.11,1.73-15.1,7.18-30.67,6.05-45.62.66-12.08-4.35-23.35-10.94-35.04-16.57Z"/>
      <path class="cls-1" d="M352.23,359.1c-12.41-39.19-24.52-77.44-37.07-117.08-1.61,2.42-2.7,3.67-3.36,5.12-10.62,23.14-21.11,46.34-31.81,69.44-4.48,9.67-9.33,19.16-14.22,28.63-.65,1.26-2.48,2.69-3.77,2.71-14.82.19-29.64.12-45.38.12,37.7-77.59,75.09-154.56,113.34-233.29,2.04,4.61,3.61,7.48,4.61,10.53,5.68,17.23,11.25,34.48,16.79,51.75,8.31,25.9,16.56,51.82,24.84,77.73,2.15,6.72,3.66,7.29,8.32,1.9,15.38-17.78,30.47-35.81,45.7-53.71,21.91-25.75,43.86-51.48,65.77-77.23,1.79-2.11,3.27-4.5,5.16-6.5,1.26-1.33,3-2.22,5.6-4.07-5.21,78.61-10.31,155.48-15.42,232.6h-51.57c3.09-34.02,6.15-67.75,9.21-101.48-.84-.36-1.69-.73-2.53-1.09-30.92,37.4-61.84,74.79-94.2,113.93Z"/>
      <path class="cls-1" d="M694.61,179.37c-3.34-2.25-5.38-3.67-7.46-5.03-15.37-10.03-31.75-16.94-50.59-15.26-9.49.84-17.59,4.73-22.61,13.27-4.43,7.54-3.53,14.77,3.8,20.62,7.06,5.64,15.43,9.62,22.66,15.08,11.67,8.8,23.41,17.65,34.16,27.52,13.43,12.33,14.62,28.37,10.11,44.99-9.21,33.99-31.7,55.66-64.3,67.33-23.22,8.31-47.05,7.1-70.89,3.14-7.59-1.26-15.16-2.7-22.65-4.49-1.5-.36-3.8-2.87-3.59-4.01,3.21-18.05,6.76-36.04,10.26-54.04.06-.31.49-.55-.01-.02,11.39,5.59,22.18,11.77,33.63,16.26,13.31,5.22,27.4,6.2,41.32,2.02,4.44-1.33,8.87-3.58,12.53-6.41,12.6-9.73,13.54-25.6,1.28-35.66-9.87-8.1-20.88-14.94-31.87-21.54-15.2-9.13-27.28-20.27-30.17-38.8-2.63-16.84,1.42-32.06,10.52-46.28,18.14-28.32,44.85-40.05,77.53-41.25,20.51-.76,39.93,3.49,59.57,10.6-4.33,17.01-8.63,33.9-13.24,51.97Z"/>
      <path class="cls-1" d="M60.79,288.5c11.69,5.63,22.96,12.22,35.04,16.57,14.95,5.39,30.52,6.52,45.62-.66,1.07-.51,2.1-1.11,3.11-1.73,17.61-10.84,19.55-24.63,4.08-38.33-9.08-8.05-19.7-14.5-30.13-20.85-16.02-9.74-28.8-21.51-31.43-41.32-2.36-17.77,3.79-32.92,13.57-47.23,18.24-26.68,44.64-36.66,75.63-38.28,20.79-1.09,40.24,4.2,59.55,10.54-4.47,16.9-8.94,33.78-13.66,51.63-2.27-1.33-4.03-2.31-5.73-3.38-15.6-9.75-31.78-17.77-50.93-16.36-8.73.64-16.67,3.39-22.46,10.43-6.7,8.14-5.94,16.58,2.06,23.46,1.35,1.16,2.82,2.17,4.27,3.21,13.77,9.92,27.68,19.67,41.31,29.79,24.68,18.33,30.03,32.24,17.95,64.62-12.7,34.04-39.34,53.77-75.2,60.99-23.06,4.64-45.62,1.35-68.22-2.93-2.13-.4-4.29-.68-6.41-1.15-9.18-2.05-10.47-3.92-8.42-13.17,3.45-15.59,7.06-31.15,10.41-45.85Z"/>
    </g>
  </g>
</svg>